<svg width="500" height="260" viewBox="0 0 500 260" fill="none" xmlns="http://www.w3.org/2000/svg">
<g clip-path="url(#clip0_840_2)">
<rect x="51" width="1" height="260" fill="#EFEDFD"/>
<rect x="87" width="1" height="260" fill="#EFEDFD"/>
<rect x="123" width="1" height="260" fill="#EFEDFD"/>
<rect x="159" width="1" height="260" fill="#EFEDFD"/>
<rect x="195" width="1" height="260" fill="#EFEDFD"/>
<rect x="231" width="1" height="260" fill="#EFEDFD"/>
<rect x="267" width="1" height="260" fill="#EFEDFD"/>
<rect x="303" width="1" height="260" fill="#EFEDFD"/>
<rect x="339" width="1" height="260" fill="#EFEDFD"/>
<rect x="375" width="1" height="260" fill="#EFEDFD"/>
<rect x="411" width="1" height="260" fill="#EFEDFD"/>
<rect x="447" width="1" height="260" fill="#EFEDFD"/>
<rect x="483" width="1" height="260" fill="#EFEDFD"/>
<rect x="2" y="257" width="1" height="498" transform="rotate(-90 2 257)" fill="#EFEDFD"/>
<rect x="2" y="221" width="1" height="498" transform="rotate(-90 2 221)" fill="#EFEDFD"/>
<rect x="1" y="185" width="1" height="498" transform="rotate(-90 1 185)" fill="#EFEDFD"/>
<rect x="1" y="149" width="1" height="498" transform="rotate(-90 1 149)" fill="#EFEDFD"/>
<rect x="1" y="113" width="1" height="498" transform="rotate(-90 1 113)" fill="#EFEDFD"/>
<rect x="1" y="77" width="1" height="498" transform="rotate(-90 1 77)" fill="#EFEDFD"/>
<rect y="41" width="1" height="498" transform="rotate(-90 0 41)" fill="#EFEDFD"/>
<rect y="5" width="1" height="498" transform="rotate(-90 0 5)" fill="#EFEDFD"/>
<rect x="15" width="1" height="260" fill="#EFEDFD"/>
</g>
<defs>
<clipPath id="clip0_840_2">
<rect width="500" height="260" fill="white"/>
</clipPath>
</defs>
</svg>
