<?xml version="1.0" encoding="UTF-8"?>
<svg xmlns="http://www.w3.org/2000/svg" id="Laag_2" viewBox="0 0 151.75 85.34">
  <defs>
    <style>.cls-1{fill:#1d1d1b;}</style>
  </defs>
  <g id="Laag_1-2">
    <g>
      <g>
        <polyline class="cls-1" points="67.02 56.89 88.86 0 75.45 0 53.62 56.89 67.02 56.89"></polyline>
        <polyline class="cls-1" points="13.4 56.89 24.32 28.45 10.92 28.45 0 56.89 13.4 56.89"></polyline>
        <polyline class="cls-1" points="95.82 28.45 82.41 28.45 60.57 85.34 73.98 85.34 95.82 28.45"></polyline>
        <polyline class="cls-1" points="49.15 56.89 60.07 28.45 46.67 28.45 35.75 56.89 49.15 56.89"></polyline>
        <polyline class="cls-1" points="20.36 85.34 42.2 28.45 28.8 28.45 6.95 85.34 20.36 85.34"></polyline>
        <polyline class="cls-1" points="113.69 28.45 100.29 28.45 89.37 56.89 102.77 56.89 113.69 28.45"></polyline>
      </g>
      <g>
        <path class="cls-1" d="m96.49,70.88l.84-4.95h1.76l-1.56,7.89h-1.84l-.99-4.5-.97,4.5h-1.84l-1.57-7.89h1.77l.84,4.95,1.01-4.95h1.51l1.03,4.95Z"></path>
        <path class="cls-1" d="m104.35,70.48h-2.79v1.88h3.3v1.46h-5.07v-7.89h5.08v1.47h-3.31v1.66h2.79v1.41Z"></path>
        <path class="cls-1" d="m114.12,71.15c-.02.55-.16,1.03-.42,1.45-.25.42-.61.75-1.06.98-.46.23-.98.35-1.57.35-.97,0-1.73-.34-2.29-1.01s-.83-1.63-.83-2.86v-.39c0-.77.13-1.45.38-2.03.25-.58.61-1.03,1.08-1.34.47-.31,1.02-.47,1.64-.47.89,0,1.61.25,2.15.76s.85,1.2.93,2.08h-1.77c-.01-.48-.13-.82-.34-1.03-.21-.21-.54-.31-.97-.31s-.77.18-.97.53c-.21.35-.31.92-.32,1.7v.56c0,.84.1,1.44.3,1.8s.54.54,1.02.54c.41,0,.72-.1.94-.31.22-.21.33-.53.34-.98h1.77Z"></path>
        <path class="cls-1" d="m117.7,71.03h-.96v2.79h-1.78v-7.89h2.9c.87,0,1.56.21,2.05.62.49.41.74,1,.74,1.76,0,.55-.1,1-.31,1.37-.21.36-.53.65-.97.88l1.54,3.19v.08h-1.9l-1.3-2.79Zm-.96-1.46h1.12c.34,0,.59-.09.76-.29.17-.19.26-.46.26-.79s-.09-.61-.26-.8-.42-.29-.76-.29h-1.12v2.17Z"></path>
        <path class="cls-1" d="m126.29,70.48h-2.79v1.88h3.3v1.46h-5.07v-7.89h5.08v1.47h-3.31v1.66h2.79v1.41Z"></path>
        <path class="cls-1" d="m131.7,72.35h-2.43l-.42,1.47h-1.9l2.7-7.89h1.67l2.72,7.89h-1.91l-.43-1.47Zm-2.01-1.47h1.58l-.79-2.74-.79,2.74Z"></path>
        <path class="cls-1" d="m139.75,67.4h-2.21v6.42h-1.78v-6.42h-2.17v-1.47h6.16v1.47Z"></path>
        <path class="cls-1" d="m145.06,70.48h-2.79v1.88h3.3v1.46h-5.07v-7.89h5.08v1.47h-3.31v1.66h2.79v1.41Z"></path>
        <path class="cls-1" d="m147.27,72.05c.27,0,.49.09.67.26s.27.39.27.66-.09.49-.27.66-.4.26-.67.26-.5-.09-.68-.26c-.18-.17-.27-.39-.27-.66s.09-.48.27-.66.4-.26.68-.26Z"></path>
        <path class="cls-1" d="m91.33,82.2l.84-4.95h1.76l-1.56,7.89h-1.84l-.99-4.5-.97,4.5h-1.84l-1.57-7.89h1.77l.84,4.95,1.01-4.95h1.51l1.03,4.95Z"></path>
        <path class="cls-1" d="m99.19,81.8h-2.79v1.89h3.3v1.46h-5.07v-7.89h5.08v1.47h-3.31v1.66h2.79v1.41Z"></path>
        <path class="cls-1" d="m104.78,82.47v2.68h-1.78v-7.89h2.94c.56,0,1.06.11,1.5.33s.77.54,1.01.95c.24.41.36.88.36,1.39,0,.77-.26,1.38-.77,1.85-.51.46-1.22.69-2.12.69h-1.13Zm0-1.47h1.16c.34,0,.61-.09.79-.28.18-.18.27-.44.27-.78,0-.37-.09-.66-.28-.88-.19-.22-.44-.33-.76-.34h-1.18v2.28Z"></path>
        <path class="cls-1" d="m112.48,82.36h-.96v2.79h-1.78v-7.89h2.9c.87,0,1.56.21,2.05.62.49.42.74,1,.74,1.76,0,.55-.1,1-.31,1.36-.21.36-.53.65-.97.88l1.54,3.19v.08h-1.9l-1.3-2.79Zm-.96-1.46h1.12c.34,0,.59-.1.76-.29.17-.19.26-.46.26-.79s-.09-.61-.26-.8c-.17-.19-.42-.29-.76-.29h-1.12v2.17Z"></path>
        <path class="cls-1" d="m122.74,81.36c0,.77-.13,1.45-.4,2.04-.27.59-.64,1.05-1.13,1.37-.49.32-1.05.48-1.68.48s-1.18-.15-1.67-.46-.86-.75-1.14-1.32-.41-1.23-.43-1.98v-.44c0-.77.13-1.46.4-2.05.26-.59.64-1.04,1.14-1.37.49-.32,1.06-.48,1.69-.48s1.18.16,1.67.48c.49.32.87.77,1.14,1.36.27.59.41,1.26.41,2.02v.36Zm-1.81-.33c0-.78-.12-1.38-.37-1.79-.25-.41-.59-.61-1.05-.61-.89,0-1.36.71-1.41,2.15v.58c0,.77.11,1.37.35,1.78.24.42.6.62,1.07.62s.79-.2,1.04-.61c.24-.41.37-1,.37-1.76v-.36Z"></path>
        <path class="cls-1" d="m123.66,85.15v-7.89h2.37c.65,0,1.24.16,1.76.47.52.32.92.76,1.22,1.34.29.58.44,1.22.44,1.94v.36c0,.72-.14,1.37-.43,1.94s-.69,1.02-1.2,1.34c-.52.32-1.09.49-1.73.49h-2.42Zm1.78-6.42v4.96h.62c.51,0,.9-.2,1.17-.58.27-.39.41-.96.41-1.73v-.34c0-.76-.14-1.34-.41-1.72-.27-.39-.67-.58-1.19-.58h-.6Z"></path>
        <path class="cls-1" d="m136.13,77.26v5.16c0,.59-.12,1.09-.35,1.52-.23.43-.57.76-1,.98-.43.22-.95.34-1.54.34-.9,0-1.6-.25-2.12-.75-.52-.5-.78-1.18-.79-2.05v-5.2h1.79v5.24c.02.86.39,1.29,1.12,1.29.37,0,.65-.11.83-.32s.28-.57.28-1.06v-5.15h1.78Z"></path>
        <path class="cls-1" d="m143.2,82.48c-.02.55-.16,1.04-.42,1.46s-.61.75-1.06.98c-.46.23-.98.35-1.57.35-.97,0-1.73-.34-2.29-1.01-.56-.67-.83-1.63-.83-2.86v-.39c0-.77.13-1.45.38-2.03.25-.58.61-1.03,1.08-1.34.47-.32,1.02-.47,1.64-.47.89,0,1.61.25,2.15.76s.85,1.2.93,2.08h-1.77c-.01-.48-.13-.83-.34-1.04-.21-.21-.54-.31-.97-.31s-.77.18-.97.53-.31.92-.32,1.7v.56c0,.84.1,1.44.3,1.8s.54.54,1.02.54c.41,0,.72-.1.94-.31.22-.21.33-.53.34-.98h1.77Z"></path>
        <path class="cls-1" d="m148.61,81.8h-2.79v1.89h3.3v1.46h-5.07v-7.89h5.08v1.47h-3.31v1.66h2.79v1.41Z"></path>
        <path class="cls-1" d="m150.81,83.38c.27,0,.49.09.67.26.18.17.27.39.27.66s-.09.49-.27.66c-.18.17-.4.26-.67.26s-.5-.09-.68-.26-.27-.39-.27-.66.09-.48.27-.65.4-.26.68-.26Z"></path>
      </g>
    </g>
  </g>
</svg>
