<svg width="1145" height="292" viewBox="0 0 1145 292" fill="none" xmlns="http://www.w3.org/2000/svg">
<g clip-path="url(#clip0_639_73)">
<rect width="1145" height="292" fill="url(#paint0_linear_639_73)"/>
<g filter="url(#filter0_f_639_73)">
<line x1="-478" y1="96.7119" x2="1162" y2="96.7119" stroke="white" stroke-opacity="0.2" stroke-width="3"/>
<line x1="-478" y1="200.881" x2="1162" y2="200.881" stroke="white" stroke-opacity="0.2" stroke-width="3"/>
<line x1="607.508" y1="801.425" x2="607.508" y2="-754.675" stroke="white" stroke-opacity="0.2" stroke-width="3"/>
<line x1="714.581" y1="800.852" x2="714.581" y2="-755.248" stroke="white" stroke-opacity="0.2" stroke-width="3"/>
<line x1="824.364" y1="800.262" x2="824.364" y2="-755.838" stroke="white" stroke-opacity="0.2" stroke-width="3"/>
<line x1="931.437" y1="799.688" x2="931.437" y2="-756.412" stroke="white" stroke-opacity="0.2" stroke-width="3"/>
<line x1="1041.22" y1="799.099" x2="1041.22" y2="-757.001" stroke="white" stroke-opacity="0.2" stroke-width="3"/>
<line x1="62.6489" y1="812.999" x2="62.6489" y2="-743.101" stroke="white" stroke-opacity="0.2" stroke-width="3"/>
<line x1="169.721" y1="812.426" x2="169.721" y2="-743.674" stroke="white" stroke-opacity="0.2" stroke-width="3"/>
<line x1="279.505" y1="811.836" x2="279.505" y2="-744.264" stroke="white" stroke-opacity="0.2" stroke-width="3"/>
<line x1="386.577" y1="811.263" x2="386.577" y2="-744.837" stroke="white" stroke-opacity="0.2" stroke-width="3"/>
<line x1="496.36" y1="810.673" x2="496.36" y2="-745.427" stroke="white" stroke-opacity="0.2" stroke-width="3"/>
</g>
<rect x="-153" y="-3" width="1623" height="292" fill="url(#paint1_linear_639_73)"/>
<rect x="1179.62" y="66.5752" width="312" height="247" rx="30" transform="rotate(141.976 1179.62 66.5752)" fill="url(#paint2_linear_639_73)"/>
<rect x="1177.51" y="66.3175" width="309" height="244" rx="28.5" transform="rotate(141.976 1177.51 66.3175)" stroke="white" stroke-opacity="0.5" stroke-width="3"/>
<rect x="1142.78" y="182.277" width="312" height="247" rx="30" transform="rotate(151.976 1142.78 182.277)" fill="url(#paint3_linear_639_73)"/>
<rect x="1140.75" y="181.657" width="309" height="244" rx="28.5" transform="rotate(151.976 1140.75 181.657)" stroke="white" stroke-opacity="0.5" stroke-width="3"/>
<rect x="1088.3" y="289.575" width="312" height="247" rx="30" transform="rotate(161.976 1088.3 289.575)" fill="url(#paint4_linear_639_73)"/>
<rect x="1086.41" y="288.613" width="309" height="244" rx="28.5" transform="rotate(161.976 1086.41 288.613)" stroke="white" stroke-opacity="0.5" stroke-width="3"/>
<rect x="1014.42" y="375.659" width="312" height="247" rx="30" transform="rotate(171.976 1014.42 375.659)" fill="url(#paint5_linear_639_73)"/>
<rect x="1012.73" y="374.383" width="309" height="244" rx="28.5" transform="rotate(171.976 1012.73 374.383)" stroke="white" stroke-opacity="0.5" stroke-width="3"/>
</g>
<defs>
<filter id="filter0_f_639_73" x="-482.645" y="-760.001" width="1647.64" height="1576" filterUnits="userSpaceOnUse" color-interpolation-filters="sRGB">
<feFlood flood-opacity="0" result="BackgroundImageFix"/>
<feBlend mode="normal" in="SourceGraphic" in2="BackgroundImageFix" result="shape"/>
<feGaussianBlur stdDeviation="1.5" result="effect1_foregroundBlur_639_73"/>
</filter>
<linearGradient id="paint0_linear_639_73" x1="0" y1="292" x2="1163.32" y2="144.344" gradientUnits="userSpaceOnUse">
<stop stop-color="#F2F0FB"/>
<stop offset="1" stop-color="#D6CDF5"/>
</linearGradient>
<linearGradient id="paint1_linear_639_73" x1="-153" y1="289" x2="1456.96" y2="-62.6812" gradientUnits="userSpaceOnUse">
<stop stop-color="#F2F0FB"/>
<stop offset="1" stop-color="white" stop-opacity="0"/>
</linearGradient>
<linearGradient id="paint2_linear_639_73" x1="1178.61" y1="70.5551" x2="1491.79" y2="243.341" gradientUnits="userSpaceOnUse">
<stop stop-color="#ECE8FA"/>
<stop offset="1" stop-color="#E6E1F8"/>
</linearGradient>
<linearGradient id="paint3_linear_639_73" x1="1141.77" y1="186.257" x2="1454.95" y2="359.043" gradientUnits="userSpaceOnUse">
<stop stop-color="#E6E1F8"/>
<stop offset="1" stop-color="#DDD6F7"/>
</linearGradient>
<linearGradient id="paint4_linear_639_73" x1="1087.29" y1="293.555" x2="1400.47" y2="466.341" gradientUnits="userSpaceOnUse">
<stop stop-color="#E7E2F8"/>
<stop offset="1" stop-color="#DBD3F6"/>
</linearGradient>
<linearGradient id="paint5_linear_639_73" x1="1013.41" y1="379.639" x2="1326.59" y2="552.425" gradientUnits="userSpaceOnUse">
<stop stop-color="#DDD6F7"/>
<stop offset="1" stop-color="#D7CFF5"/>
</linearGradient>
<clipPath id="clip0_639_73">
<rect width="1145" height="292" fill="white"/>
</clipPath>
</defs>
</svg>
