<svg width="258" height="138" viewBox="0 0 258 138" fill="none" xmlns="http://www.w3.org/2000/svg">
<path d="M67 32C67 24.8203 72.8203 19 80 19H102C109.18 19 115 24.8203 115 32V136C115 136.552 114.552 137 114 137H67V32Z" fill="#F2F1FF"/>
<rect x="220.233" width="15.7916" height="136.844" rx="7.89578" fill="#FD63E7"/>
<rect x="242" y="32" width="16" height="105" rx="8" fill="#C893FD"/>
<rect x="146.822" y="59" width="15.7916" height="77.8442" rx="7.89578" fill="#FD63E7"/>
<rect x="169" y="46" width="16" height="91" rx="8" fill="#C893FD"/>
<rect x="72" y="28" width="15.7916" height="109.408" rx="7.89578" fill="#FD63E7"/>
<rect x="94.1709" y="54.2825" width="15.7916" height="83.1256" rx="7.89578" fill="#C893FD"/>
<rect y="46.4819" width="15.7916" height="90.3623" rx="7.89578" fill="#FD63E7"/>
<rect x="22.1709" y="64.4966" width="15.7916" height="72.348" rx="7.89578" fill="#C893FD"/>
</svg>
