<svg width="413" height="500" viewBox="0 0 413 500" fill="none" xmlns="http://www.w3.org/2000/svg">
<g clip-path="url(#clip0_840_2)">
<rect y="449" width="1" height="413" transform="rotate(-90 0 449)" fill="#EFEDFD"/>
<rect y="413" width="1" height="413" transform="rotate(-90 0 413)" fill="#EFEDFD"/>
<rect y="377" width="1" height="413" transform="rotate(-90 0 377)" fill="#EFEDFD"/>
<rect y="341" width="1" height="413" transform="rotate(-90 0 341)" fill="#EFEDFD"/>
<rect y="305" width="1" height="413" transform="rotate(-90 0 305)" fill="#EFEDFD"/>
<rect y="269" width="1" height="413" transform="rotate(-90 0 269)" fill="#EFEDFD"/>
<rect y="233" width="1" height="413" transform="rotate(-90 0 233)" fill="#EFEDFD"/>
<rect y="197" width="1" height="413" transform="rotate(-90 0 197)" fill="#EFEDFD"/>
<rect y="161" width="1" height="413" transform="rotate(-90 0 161)" fill="#EFEDFD"/>
<rect y="125" width="1" height="413" transform="rotate(-90 0 125)" fill="#EFEDFD"/>
<rect y="89" width="1" height="413" transform="rotate(-90 0 89)" fill="#EFEDFD"/>
<rect y="53" width="1" height="413" transform="rotate(-90 0 53)" fill="#EFEDFD"/>
<rect y="17" width="1" height="413" transform="rotate(-90 0 17)" fill="#EFEDFD"/>
<rect x="243" y="498" width="1" height="498" transform="rotate(-180 243 498)" fill="#EFEDFD"/>
<rect x="207" y="498" width="1" height="498" transform="rotate(-180 207 498)" fill="#EFEDFD"/>
<rect x="171" y="499" width="1" height="498" transform="rotate(-180 171 499)" fill="#EFEDFD"/>
<rect x="135" y="499" width="1" height="498" transform="rotate(-180 135 499)" fill="#EFEDFD"/>
<rect x="99" y="499" width="1" height="498" transform="rotate(-180 99 499)" fill="#EFEDFD"/>
<rect x="63" y="499" width="1" height="498" transform="rotate(-180 63 499)" fill="#EFEDFD"/>
<rect x="27" y="500" width="1" height="498" transform="rotate(-180 27 500)" fill="#EFEDFD"/>
<rect x="387" y="531" width="1" height="562" transform="rotate(-180 387 531)" fill="#EFEDFD"/>
<rect x="351" y="531" width="1" height="562" transform="rotate(-180 351 531)" fill="#EFEDFD"/>
<rect x="315" y="532" width="1" height="562" transform="rotate(-180 315 532)" fill="#EFEDFD"/>
<rect x="279" y="532" width="1" height="562" transform="rotate(-180 279 532)" fill="#EFEDFD"/>
<rect y="485" width="1" height="413" transform="rotate(-90 0 485)" fill="#EFEDFD"/>
</g>
<defs>
<clipPath id="clip0_840_2">
<rect width="500" height="413" fill="white" transform="matrix(0 -1 1 0 0 500)"/>
</clipPath>
</defs>
</svg>
