<svg xmlns="http://www.w3.org/2000/svg" width="216.085" height="142.96" viewBox="0 0 216.085 142.96">
  <g id="Group_1" data-name="Group 1" transform="translate(-590 -190.001)">
    <path id="Path_4" data-name="Path 4" d="M216.081,132.14c-.175-4.735-.438-9.522-.714-14.226a123.852,123.852,0,0,0,.273-15.309c-.356-5.546-.805-11.277-1.2-16.334-.419-5.368-.85-10.876-1.2-16.31,0-.059-.011-.121-.015-.18-.043-2.109-.065-4.205-.088-6.267-.045-4.277-.092-8.611-.31-12.824a125.1,125.1,0,0,0-1.486-12.426,134.533,134.533,0,0,1-1.584-13.376,77.7,77.7,0,0,1,.831-13.4c.36-2.97.7-5.813.8-8.589A2.292,2.292,0,0,0,209.05.526h-.035l-.228,0c-.782.023-1.569.037-2.356.046-4.917.06-9.84-.116-14.6-.284C186.033.085,180.05-.129,174.217.1A116.734,116.734,0,0,0,159.97,1.84,124.322,124.322,0,0,1,144.443,3.7c-6.8.24-13.7.008-20.362-.224l-.124-.418-.014.414c-6.543-.229-13.286-.459-19.825-.221-7.25.271-14.638.793-21.783,1.3l-.162.011C75,5.064,67.58,5.589,60.159,5.871c-8.443.321-17.011.815-25.372,1.311q-2.663.046-5.326.088L27.687,7.3q-11.558.2-23.116.379c-.7.011-1.293.036-1.8.07A2.939,2.939,0,0,0,0,10.773c0,.016,0,.032,0,.048.174,4.735.438,9.522.713,14.225A124.044,124.044,0,0,0,.444,40.355C.8,45.9,1.25,51.632,1.646,56.689c.419,5.368.85,10.876,1.2,16.31,0,.059.011.121.016.181.042,2.109.065,4.2.087,6.266.045,4.277.092,8.611.309,12.824A125.089,125.089,0,0,0,4.745,104.7a134.676,134.676,0,0,1,1.583,13.376,77.651,77.651,0,0,1-.831,13.4c-.159,1.309-.314,2.594-.446,3.859a6.419,6.419,0,0,0,6.458,7.075h.037l3.095-.011c4.916-.06,4.853.1,9.613.273,5.8.208,11.782.422,17.615.195a116.845,116.845,0,0,0,14.247-1.742,124.406,124.406,0,0,1,15.526-1.859c6.8-.239,13.7-.009,20.362.224l.125.418.014-.414c6.543.229,13.286.458,19.825.221,7.25-.271,14.639-.792,21.783-1.3l.162-.012c7.174-.507,14.593-1.032,22.014-1.315,8.443-.321,17.011-.815,25.372-1.311q2.664-.045,5.327-.088l1.773-.031q11.557-.2,23.116-.379c.715-.011,1.325-.037,1.845-.073a2.918,2.918,0,0,0,2.724-3.018Z" transform="translate(590 190)" fill="#2a101b"/>
    <path id="Path_5" data-name="Path 5" d="M250.753,205.555q-.95-1.209-1.892-2.423c-.4-.508-.546-.557-1.234-.368l-.507.584c.062.155.117.275.158.4a1.876,1.876,0,0,1,.121.439c.033.462.045.926.065,1.39.042.947.071,1.894.13,2.84a.714.714,0,0,0,.751.718.777.777,0,0,0,.689-.8c-.015-.52-.064-1.039-.095-1.559-.012-.2-.071-.418.1-.589.058.017.106.015.128.039.665.726,1.342,1.442,1.984,2.188.251.292.478.561.937.527a.807.807,0,0,0,.587-.91c-.029-.443-.06-.888-.067-1.332-.013-.888-.006-1.777-.017-2.665,0-.4-.031-.808-.047-1.2-.288-.438-.288-.438-.69-.64l-.447.1a1.583,1.583,0,0,0-.395,1.265c.054.5.068,1,.081,1.505a1.028,1.028,0,0,1-.107.7,1.845,1.845,0,0,1-.229-.2" transform="translate(461.576 84.926)" fill="#faefed"/>
    <path id="Path_6" data-name="Path 6" d="M314.346,204.538a3.558,3.558,0,0,0,.55-2.77,3.515,3.515,0,0,0-1.457-2.163,2,2,0,0,0-.525-.238,5.5,5.5,0,0,0-2.043-.353c-.48,0-.93.026-1.2.516a1.638,1.638,0,0,1-.322.309c-.029.239-.071.45-.077.66-.007.269.022.538.023.808,0,1.044,0,2.088.012,3.132a3.389,3.389,0,0,0,.111.745.829.829,0,0,0,.953.735c.561-.006,1.124-.024,1.682-.077a3.057,3.057,0,0,0,2.295-1.305m-3.418-.17a2.147,2.147,0,0,1-.125-.412,10.923,10.923,0,0,1,.016-3.1c.367-.035.712-.089,1.058-.1a1.587,1.587,0,0,1,1.664,1.68,2.381,2.381,0,0,1-.044.518,1.461,1.461,0,0,1-1.058,1.187,2.857,2.857,0,0,1-1.511.228" transform="translate(429.277 86.576)" fill="#faefed"/>
    <path id="Path_7" data-name="Path 7" d="M238.611,208.772c-.1-.211-.181-.427-.269-.642-.5-1.235-1.011-2.469-1.506-3.708a1.116,1.116,0,0,0-1.119-.758c-.209,0-.419.015-.6.023a2.818,2.818,0,0,0-.61,1.038c-.374,1.24-.764,2.476-1.142,3.714a6.58,6.58,0,0,0-.244.953.659.659,0,0,0,.484.809.743.743,0,0,0,.935-.477c.077-.195.135-.4.215-.635a16.133,16.133,0,0,1,2.281-.058c.076.143.153.273.219.41.334.7.81.794,1.427.274a1.185,1.185,0,0,0-.066-.945m-3.37-1.142a5.171,5.171,0,0,1,.483-1.79,3.625,3.625,0,0,1,.674,1.581l-1.157.209" transform="translate(468.858 84.159)" fill="#faefed"/>
    <path id="Path_8" data-name="Path 8" d="M247.518,142.47a7.488,7.488,0,0,1,1.092,2.732,23.716,23.716,0,0,1,.218,2.946c.027.5.012,1.005.034,1.507.048,1.119.11,2.237.162,3.356.036.792.062,1.585.1,2.377a.594.594,0,0,0,.241.564c1.54-.153,3.148-.028,4.739-.2a3.086,3.086,0,0,0,.243-1.171,45.458,45.458,0,0,0,.338-5.154c.011-.987-.028-1.975-.089-2.96A20.92,20.92,0,0,0,253.311,140a8.733,8.733,0,0,0-3.106-4.035,6.587,6.587,0,0,0-6.345-.832A7.241,7.241,0,0,0,241,136.956c-.123.13-.222.33-.505.292a5.247,5.247,0,0,0-.44-2.19L238.857,135a16.26,16.26,0,0,1-4.088,1.724,9.112,9.112,0,0,0-.037.951c.067,1.062.156,2.123.235,3.185.023.309.03.619.061.927.078.789.184,1.576.246,2.366.148,1.873.237,3.751.426,5.62a43.3,43.3,0,0,1,.173,5.857c-.011.307-.043.614-.065.925l.528.637c1.429.011,2.876.022,4.322.029a3.012,3.012,0,0,0,.4-.04.871.871,0,0,0,.155-.065l.177-.256c-.019-.46-.038-.826-.047-1.192-.024-1-.02-2.011-.068-3.015-.048-.986-.134-1.97-.225-2.953a13.922,13.922,0,0,1-.059-2.26,10.552,10.552,0,0,1,1.336-4.579,3.487,3.487,0,0,1,2.372-1.706,2,2,0,0,1,1.525.163,3.9,3.9,0,0,1,1.29,1.149" transform="translate(468.016 120.013)" fill="#faefed"/>
    <path id="Path_9" data-name="Path 9" d="M249.452,231.7a3.191,3.191,0,0,0,1.806-.537,3.407,3.407,0,0,0,1.5-3.429,3.509,3.509,0,0,0-2.152-2.884,1.719,1.719,0,0,0-1.3-.065c-.293.1-.594.172-.891.261a3.326,3.326,0,0,0-2.449,3.514,3.292,3.292,0,0,0,3.49,3.141m-1.889-3.231a4.228,4.228,0,0,1,.7-1.573,1.327,1.327,0,0,1,1.438-.51,1.723,1.723,0,0,1,.519,3.241,9.145,9.145,0,0,1-.831.406,1.417,1.417,0,0,1-1.829-1.564" transform="translate(462.181 73.233)" fill="#faefed"/>
    <path id="Path_10" data-name="Path 10" d="M288.884,156.632a1.4,1.4,0,0,0-.016-.322,12.887,12.887,0,0,1-.272-2.534c-.157-2.144-.331-4.285-.491-6.429-.048-.637-.056-1.277-.108-1.914-.1-1.292-.236-2.583-.339-3.875a27.686,27.686,0,0,1-.069-3.654,1.072,1.072,0,0,0-.356-.916c-.1-.029-.223-.076-.354-.1s-.266-.04-.431-.064c-1.429.848-3.112.93-4.66,1.383-.081.329-.149.61-.213.872a3.5,3.5,0,0,1,.19.616c.093.9.172,1.81.246,2.716.1,1.2.183,2.392.286,3.588.2,2.332.411,4.664.61,7,.1,1.118.172,2.239.26,3.358a.856.856,0,0,0,.28.722c.264.012.572.038.879.036.5,0,1-.022,1.5-.039.792-.028,1.584-.054,2.375-.1a.847.847,0,0,0,.679-.339" transform="translate(443.67 118.898)" fill="#faefed"/>
    <path id="Path_11" data-name="Path 11" d="M262.624,227.18c.333,1.01.663,2.022,1.007,3.028a.9.9,0,0,0,1.073.756c.655-.023.834-.161,1-.82.182-.732.345-1.469.517-2.2a.732.732,0,0,1,.263-.535c.054.114.109.207.146.308.288.8.563,1.606.863,2.4a.845.845,0,0,0,1.018.655c.077,0,.155-.009.231-.016a.749.749,0,0,0,.71-.585c.052-.186.091-.376.139-.564.342-1.349.563-2.728,1.03-4.048a1.285,1.285,0,0,0-.219-1.3c-.638-.2-1-.036-1.184.548a4.505,4.505,0,0,0-.113.45q-.246,1.164-.487,2.33a.951.951,0,0,1-.3.639,2.643,2.643,0,0,1-.136-.275q-.25-.712-.491-1.427c-.18-.532-.347-1.069-.534-1.6a.837.837,0,0,0-1.576-.032c-.243.692-.484,1.384-.731,2.074a2.022,2.022,0,0,1-.428.869c-.4-1.059-.708-2.091-1.023-3.087-.667-.332-.874-.3-1.333.257a4.822,4.822,0,0,0,.1.736c.133.485.3.96.46,1.438" transform="translate(453.808 73.501)" fill="#faefed"/>
    <path id="Path_12" data-name="Path 12" d="M304.58,228.21a1.133,1.133,0,0,0,.081.276.546.546,0,0,0,.687.376q.687-.094,1.377-.163c.4-.041.809-.058,1.211-.1a.693.693,0,0,0,.589-1.014,2.721,2.721,0,0,0-.343-.491c-.724-.057-1.38.226-2.068.122a1.109,1.109,0,0,1-.068-.974,2.571,2.571,0,0,1,.382-.1c.365-.039.731-.068,1.1-.091.288-.018.561-.092.652-.388a1.49,1.49,0,0,0,.043-.676,1.291,1.291,0,0,0-.25-.419c-.713-.084-1.343.138-1.962.023a.986.986,0,0,1-.036-.9c.146-.022.312-.057.48-.069.366-.027.733-.054,1.1-.061a.955.955,0,0,0,.686-.249c.317-.691.261-1.022-.213-1.334-.456.019-.9.023-1.344.058-.481.038-.964.08-1.437.165a.938.938,0,0,0-.869.994c-.014.193-.021.386-.023.579a17.134,17.134,0,0,0,.013,2.895c.083.513.14,1.032.214,1.547" transform="translate(431.864 74.644)" fill="#faefed"/>
    <path id="Path_13" data-name="Path 13" d="M273.5,118.943c.443.534.948,1.017,1.439,1.511.614.617,1.239,1.222,1.805,1.778l1.62.762c.133-.111.312-.251.48-.4s.286-.321.454-.446c.745-.555,1.492-1.106,2.252-1.64a19.089,19.089,0,0,0,4.42-3.992,3.538,3.538,0,0,0,.687-3.159,1.723,1.723,0,0,0-.3-.621,4.588,4.588,0,0,0-.688-.7,2.572,2.572,0,0,0-3.318-.248,10.7,10.7,0,0,0-2.024,1.816,25.743,25.743,0,0,0-1.6,2.268c-.117.168-.152.405-.394.494-.258-.108-.345-.359-.443-.579a7.824,7.824,0,0,0-1.434-2.031,4.05,4.05,0,0,0-2.6-1.389,1.3,1.3,0,0,0-1.128.322,3.965,3.965,0,0,0-.624.75,2.851,2.851,0,0,0-.255,2.084,8.855,8.855,0,0,0,.927,2.245,5.89,5.89,0,0,0,.723,1.186" transform="translate(448.765 132.168)" fill="#faefed"/>
    <path id="Path_14" data-name="Path 14" d="M262.222,207.778a1.157,1.157,0,0,0,1.22.946,15.427,15.427,0,0,0,1.909-.111,3.249,3.249,0,0,0,1.141-.388,3.423,3.423,0,0,0,.6-5.191c-.078-.057-.14-.134-.215-.195a2.573,2.573,0,0,0-1.634-.669c-.735,0-1.47.035-2.2.076-.284.016-.565.091-.936.154-.01.551-.021,1.028-.025,1.506-.007.812.017,1.627-.024,2.437a4.8,4.8,0,0,0,.166,1.434m1.462-4.139a3.8,3.8,0,0,1,1.627-.025,1.643,1.643,0,0,1,1.2,1.96c-.043.265-.124.525-.185.787a.652.652,0,0,1-.506.547l-1.926.383a14.066,14.066,0,0,1-.213-3.652" transform="translate(453.816 84.935)" fill="#faefed"/>
    <path id="Path_15" data-name="Path 15" d="M238.244,228.393a1,1,0,0,0-.295-1.1,4.621,4.621,0,0,1-.372-.358,2.137,2.137,0,0,0-1.706-.849c-.715-.024-1.43-.039-2.145-.061a.6.6,0,0,0-.634.305c0,.2-.021.449-.011.7.057,1.527.115,3.054.187,4.58a2.22,2.22,0,0,0,.154.731.689.689,0,0,0,.826.379.665.665,0,0,0,.548-.656c.01-.173-.023-.348-.024-.521,0-.284.008-.569.014-.883l.629-.025c.433.588.825,1.139,1.238,1.675a.7.7,0,0,0,.985.155.661.661,0,0,0,.232-.87,3.266,3.266,0,0,0-.262-.451c-.194-.308-.391-.615-.636-1,.113-.084.174-.132.238-.176a2.9,2.9,0,0,0,1.035-1.568m-3.5.743a3.207,3.207,0,0,1-.021-1.568c.373-.037.693-.093,1.014-.095a.736.736,0,0,1,.737.676c.022.168.016.34.022.5a2.212,2.212,0,0,1-1.752.487" transform="translate(468.873 72.541)" fill="#faefed"/>
    <path id="Path_16" data-name="Path 16" d="M307.264,144.744q3.105-.154,6.211-.3c1.51-.068,3.02-.125,4.53-.182a19.75,19.75,0,0,1,2.091-.043,4.7,4.7,0,0,0,1.777-.171,1.91,1.91,0,0,0,.077-.35c.008-.27,0-.541-.008-.812a14.62,14.62,0,0,0-1.342-5.906,7.95,7.95,0,0,0-5.953-4.624,12.678,12.678,0,0,0-7.348.734,7.921,7.921,0,0,0-4.41,4.369,16.792,16.792,0,0,0-.828,2.779,15.921,15.921,0,0,0-.3,4.5,6.889,6.889,0,0,0,.8,3,11.881,11.881,0,0,0,4.449,4.634,8.729,8.729,0,0,0,3.953,1.232,10.073,10.073,0,0,0,3.563-.4,16.974,16.974,0,0,0,6.3-3.728.962.962,0,0,0,.13-.227c-.336-.306-.645-.625-.99-.9-.425-.334-.879-.631-1.322-.942-.218-.153-.44-.3-.621-.424a.905.905,0,0,0-.18.046c-.236.133-.469.271-.7.406a9.587,9.587,0,0,1-5.978,1.485,4.345,4.345,0,0,1-1.692-.562,6.124,6.124,0,0,1-2.414-2.825.991.991,0,0,1-.188-.728,3.442,3.442,0,0,1,.394-.065m.061-3.939a5.355,5.355,0,0,1,1.911-2.9,4,4,0,0,1,2.253-.827,10.448,10.448,0,0,1,1.963.044,4.686,4.686,0,0,1,3.6,2.794,3.474,3.474,0,0,1,.15.494,1.732,1.732,0,0,1-.324.1c-3.173.245-6.345.487-9.6.735a2.954,2.954,0,0,1,.047-.445" transform="translate(433.198 121.341)" fill="#faefed"/>
    <path id="Path_17" data-name="Path 17" d="M279.539,204.626c.343.515.679,1.036,1.02,1.553.1.158.186.348.491.359a8.9,8.9,0,0,0,.608-.839c.221-.383.384-.8.585-1.2a2.013,2.013,0,0,1,.268-.323,1.847,1.847,0,0,1,.161.888c.005.58.007,1.161.046,1.74a.734.734,0,0,0,.945.742,1.959,1.959,0,0,0,.274-.079.923.923,0,0,0,.219-.758c-.035-1.122-.063-2.244-.1-3.367-.015-.483-.035-.967-.065-1.45-.037-.581-.314-.814-.911-.783-.134.007-.267.025-.456.043-.773.761-1.029,1.9-1.8,2.754-.132-.161-.25-.284-.344-.424-.359-.529-.739-1.046-1.056-1.6a1.3,1.3,0,0,0-1.406-.694.85.85,0,0,0-.442.708,6.008,6.008,0,0,0-.023.7c.031,1.488.066,2.977.1,4.562l.417.59.6.079c.5-.281.591-.392.579-.88-.016-.618-.067-1.234-.109-1.852a1.61,1.61,0,0,1,.086-.849,4.873,4.873,0,0,1,.312.378" transform="translate(445.76 85.486)" fill="#faefed"/>
    <path id="Path_18" data-name="Path 18" d="M285.2,226.873c.525.644,1.052,1.287,1.566,1.94a2.859,2.859,0,0,0,.9.919c.712-.031.984-.307.961-.966-.007-.192-.065-.382-.069-.575q-.045-1.94-.074-3.88a1.4,1.4,0,0,0-.245-.894,1.33,1.33,0,0,0-.986-.315c-.378.372-.419.456-.395.806.05.713.1,1.425.152,2.138.011.166.041.341-.112.464-.055-.025-.1-.031-.122-.057q-.827-1.119-1.648-2.242c-.09-.124-.159-.266-.259-.381a.854.854,0,0,0-1.458.026,34.583,34.583,0,0,0,.241,5.718.9.9,0,0,0,1.229.3,23.879,23.879,0,0,0,.11-3.1c.107.05.174.061.206.1" transform="translate(442.734 74.062)" fill="#faefed"/>
    <path id="Path_19" data-name="Path 19" d="M300.342,206.462c-.049-.19-.084-.376-.146-.552-.09-.255-.206-.5-.3-.754-.488-1.285-.969-2.573-1.46-3.855a1.029,1.029,0,0,0-1.3-.779c-.077.01-.153.026-.23.034a.843.843,0,0,0-.76.622c-.192.568-.383,1.137-.563,1.709-.319,1.014-.593,2.045-.955,3.044-.265.729.072,1.254.863,1.18.057-.006.113-.024.244-.051l.5-.926a6.628,6.628,0,0,1,2.3-.275c.5,1.174.78,1.274,1.81.6m-3.6-1.972a3.979,3.979,0,0,1,.529-1.741,3.067,3.067,0,0,1,.641,1.676,2.511,2.511,0,0,1-1.17.064" transform="translate(436.933 85.803)" fill="#faefed"/>
    <path id="Path_20" data-name="Path 20" d="M318.739,226.694a1.274,1.274,0,0,1-.943-.186c-.254-.17-.535-.3-.754-.417-.786.165-.926.367-.819,1.1a2.681,2.681,0,0,0,3.544.779,2.494,2.494,0,0,0,.606-.608,1.819,1.819,0,0,0-.868-2.981c-.365-.126-.747-.206-1.114-.327a1.2,1.2,0,0,1-.694-.366.837.837,0,0,1,1.309-.536,1.216,1.216,0,0,0,1.08.167c.313-.618.273-.943-.159-1.372a1.736,1.736,0,0,0-1.065-.548,2.719,2.719,0,0,0-2.188.728,1.617,1.617,0,0,0-.51.958,1.683,1.683,0,0,0,.965,2.018c.3.124.617.218.918.343a3,3,0,0,1,1.252.641.594.594,0,0,1-.561.607" transform="translate(425.713 74.95)" fill="#faefed"/>
    <path id="Path_21" data-name="Path 21" d="M299.169,223.341a.647.647,0,0,0-.473-.534.754.754,0,0,0-1.074.734c-.008.1-.019.193-.018.289.01.81.024,1.62.033,2.43s.01,1.617.016,2.547a4.122,4.122,0,0,0,.427.386.723.723,0,0,0,1.188-.542,3.932,3.932,0,0,0,.008-.521c-.014-.462-.047-.924-.049-1.387,0-.866.014-1.732.01-2.6a4.905,4.905,0,0,0-.067-.8" transform="translate(435.339 74.241)" fill="#faefed"/>
    <path id="Path_22" data-name="Path 22" d="M115.816,216.9c.141.441.361.858.5,1.3a4.644,4.644,0,0,0,.862,1.631c.506.609,1.035,1.2,1.554,1.8a.426.426,0,0,0,.082.082c.68.444,1.337.929,2.047,1.32a9.031,9.031,0,0,0,3.615.994,10.6,10.6,0,0,0,2.258.084,11.566,11.566,0,0,0,4.461-1.569,9.564,9.564,0,0,0,4.588-6.226,11.177,11.177,0,0,0,.306-3.21,16.359,16.359,0,0,0-.414-3.53,9.632,9.632,0,0,0-2.167-4.44,6.91,6.91,0,0,0-2.059-1.679,9.851,9.851,0,0,0-3.873-.906,14.248,14.248,0,0,0-3.351.268,8.282,8.282,0,0,0-2.881,1.025,10.89,10.89,0,0,0-4.894,6.529c-.149.541-.333,1.072-.477,1.614a9.3,9.3,0,0,0-.372,1.638,18.025,18.025,0,0,0,.015,2.26,4.015,4.015,0,0,0,.2,1.018m5.587-5.181a1.136,1.136,0,0,1,.226-.525,3.477,3.477,0,0,0,.649-1.018,3.1,3.1,0,0,1,1.286-1.306,4.314,4.314,0,0,1,2.009-.7c.52-.012,1.041-.033,1.561-.027a2.336,2.336,0,0,1,.567.113,3.966,3.966,0,0,1,2.259,1.433,3.052,3.052,0,0,1,.458.8,7.55,7.55,0,0,1,.477,2.729,4.121,4.121,0,0,1-1.781,3.36,4.993,4.993,0,0,1-2.793,1.025c-.116,0-.231.027-.346.041a6.605,6.605,0,0,1-2.746-.274,2.567,2.567,0,0,1-1.589-1.59,6.766,6.766,0,0,1-.237-4.054" transform="translate(529.941 84.747)" fill="#faefed"/>
    <path id="Path_23" data-name="Path 23" d="M164.225,214.341c-.276.466-.534.944-.823,1.4-.628,1-1.254,2-1.913,2.98a26.784,26.784,0,0,1-2.351,3.3,2.107,2.107,0,0,0-.206.314.965.965,0,0,0,.491.9,2.146,2.146,0,0,0,1.361.415c1.181-.045,2.363-.057,3.543-.109a4.054,4.054,0,0,0,1.326-.17c.034-.14.055-.272.1-.4a3.676,3.676,0,0,1,.281-.755q1.6-2.628,3.232-5.239a2.9,2.9,0,0,1,.312-.351,3.307,3.307,0,0,1,.266.284c.27.379.543.756.8,1.144q1.276,1.942,2.538,3.892c.282.438.539.893.792,1.348a1.134,1.134,0,0,0,.723.583c.29-.112.6-.218.9-.352.335-.149.651-.343.991-.481a9.951,9.951,0,0,1,2.621-.915,1.7,1.7,0,0,0,.489-.175.779.779,0,0,0,.512-.646,1.358,1.358,0,0,0-.625-.879,3.423,3.423,0,0,1-.79-.918,3.092,3.092,0,0,0-.312-.416c-.475-.535-.962-1.059-1.433-1.6a41.768,41.768,0,0,1-2.61-3.337c-.257-.362-.539-.707-.816-1.055-.334-.421-.674-.838-1.014-1.26.082-.14.133-.243.2-.335.694-.978,1.393-1.952,2.084-2.933a8.814,8.814,0,0,0,.862-1.3,16.474,16.474,0,0,1,1.161-1.941,11.753,11.753,0,0,1,1.788-2.424,2.19,2.19,0,0,0,.329-.618l-.409-.744a6.347,6.347,0,0,0-.946-.277,13.631,13.631,0,0,0-3.227-.311,4.742,4.742,0,0,1-.639-.012c-.462-.014-.923-.03-1.42-.046a18.1,18.1,0,0,0-1.24,1.885c-.416.606-.792,1.239-1.178,1.865s-.775,1.276-1.2,1.978l-.718-.991c-.874-1.206-1.762-2.4-2.615-3.624a1,1,0,0,0-1.024-.488c-1.063.106-2.074.464-3.126.625-.246.037-.492.079-.74.1a2.971,2.971,0,0,0-1.371.421c-.252.164-.474.376-.757.6.781.957,1.607,1.9,2.416,2.858s1.631,1.866,2.413,2.826,1.652,1.886,2.37,2.9a4.431,4.431,0,0,1-.2.472c-.391.668-.793,1.33-1.187,2" transform="translate(507.673 85.59)" fill="#faefed"/>
    <path id="Path_24" data-name="Path 24" d="M37.613,136.525c.1.61.261,1.211.341,1.823.177,1.362.323,2.729.474,4.093.106.962.184,1.927.3,2.887.164,1.344.363,2.685.525,4.03.164,1.363.3,2.729.454,4.092.069.615.162,1.228.223,1.843.125,1.251.232,2.5.356,3.753a1.665,1.665,0,0,0,.318.974,3.134,3.134,0,0,0,1.331-.011,2.866,2.866,0,0,1,.633-.074c.735-.032,1.47-.055,2.2-.083a1.245,1.245,0,0,0,.9-.27c-.094-.5-.188-1-.3-1.608.235.1.372.144.5.205.3.141.582.309.887.429a12.67,12.67,0,0,0,4.654.846c.384,0,.767-.093,1.151-.119a10.241,10.241,0,0,0,3.2-.776,8.462,8.462,0,0,0,4.1-3.289A11.131,11.131,0,0,0,61.6,149.8a9.3,9.3,0,0,0-.081-2.316,19.192,19.192,0,0,0-.465-2.211,11.231,11.231,0,0,0-3.486-5.186,10.341,10.341,0,0,0-3.892-2.123,8.929,8.929,0,0,0-6.374.689,16.642,16.642,0,0,0-2.6,1.628,3.48,3.48,0,0,1-.354.185c-.028-.346-.05-.63-.075-.914-.089-1.041-.185-2.08-.267-3.121-.077-.984-.144-1.969-.208-2.953-.059-.907-.11-1.815-.162-2.722a1.564,1.564,0,0,0-.2-.87,2.48,2.48,0,0,0-1.72.09c-.172.083-.375.1-.554.171-.7.277-1.415.528-2.093.854a6.685,6.685,0,0,0-1.746,1.271,6.929,6.929,0,0,0-.122,1.322c.093.981.252,1.957.405,2.931m7.476,10.917a5.028,5.028,0,0,1,.559-1.872,4.389,4.389,0,0,1,1.671-1.645,13.58,13.58,0,0,1,1.686-.763,5.429,5.429,0,0,1,3.915.122,3.807,3.807,0,0,1,2.551,3.116c.073.5.138.995.207,1.492a12.63,12.63,0,0,1-.382,3.337,3.46,3.46,0,0,1-1.629,2.237,6.284,6.284,0,0,1-4.875.958,3.364,3.364,0,0,1-1.667-.88,6.7,6.7,0,0,1-2.162-4.609,5.9,5.9,0,0,1,.126-1.494" transform="translate(570.668 122.557)" fill="#faefed"/>
    <path id="Path_25" data-name="Path 25" d="M195.691,138.956a2.4,2.4,0,0,0-1.508-.226,17.282,17.282,0,0,1-3.275.407,1.536,1.536,0,0,0-1.355.673,30.326,30.326,0,0,1-1.24,4.461c-.4,1.229-.928,2.416-1.408,3.617a1.448,1.448,0,0,1-.252.308c-.129-.245-.228-.431-.325-.619-.338-.652-.71-1.291-1.005-1.962-.476-1.08-.9-2.185-1.352-3.275-.14-.334-.323-.651-.493-.989-.333-.072-.63-.157-.932-.2-.822-.108-1.651-.174-2.47-.3a5.576,5.576,0,0,0-1.339.01c-.082.227-.147.447-.238.657-.674,1.567-.992,3.261-1.73,4.8a1.071,1.071,0,0,0-.031.111c-.4,1.129-.806,2.259-1.218,3.386a2.038,2.038,0,0,1-.268.37c-1.263-3.077-2.169-6.177-3.356-9.163-.422-.036-.785-.085-1.15-.1-1.18-.032-2.36-.048-3.54-.079a4.6,4.6,0,0,1-.747-.087,3.342,3.342,0,0,0-1.8.084l-.354.611c.158.267.3.474.407.7.314.664.6,1.341.921,2,.38.783.782,1.555,1.179,2.329.291.568.563,1.149.89,1.7a39.087,39.087,0,0,1,2.2,4.35q1.568,3.561,3.123,7.126c.092.209.2.41.3.6l4.917-.2c.373-.394.664-.747.552-1.276a.553.553,0,0,1,.067-.279c.2-.505.405-1.006.6-1.513.594-1.574,1.181-3.151,1.773-4.726a2.8,2.8,0,0,1,.44-.877,2.7,2.7,0,0,1,.5.9c.163.414.312.834.486,1.243q.917,2.163,1.849,4.32a2.573,2.573,0,0,0,.2.417c.256.384.524.758.818,1.181.2.025.448.064.7.086.906.08,1.812.167,2.719.224a2.845,2.845,0,0,0,1.333-.021,2.463,2.463,0,0,0,.626-1.205c.4-1.555.831-3.1,1.242-4.655.465-1.759.911-3.522,1.386-5.278.348-1.289.726-2.57,1.1-3.852.329-1.133.675-2.261,1-3.394.171-.592.321-1.191.481-1.788l-.413-.622" transform="translate(504.613 117.926)" fill="#faefed"/>
    <path id="Path_26" data-name="Path 26" d="M146.354,97.692c.577-.064,1.159-.1,1.733-.178.937-.135,1.866-.342,2.806-.445,1.674-.183,3.353-.316,5.031-.459.674-.058,1.352-.082,2.027-.132a5.858,5.858,0,0,0,.6-.108,2.378,2.378,0,0,0,.192-.73c-.062-.651-.121-1.3-.144-1.956a6.921,6.921,0,0,0-.255-1.248,11.669,11.669,0,0,0-2.148-4.774,12.654,12.654,0,0,0-2.5-2.4,8.909,8.909,0,0,0-3.937-1.452,21.112,21.112,0,0,0-3.069-.157,5.642,5.642,0,0,0-1.082.173,3.827,3.827,0,0,1-.393.1,7.475,7.475,0,0,0-2.535.789,3.592,3.592,0,0,0-1.424,1.162q-.8,1.069-1.585,2.146a3.321,3.321,0,0,0-.564,1.323c-.111.548-.274,1.086-.4,1.631a8.051,8.051,0,0,0-.154.908c-.028.249,0,.5-.03.752a25.9,25.9,0,0,0-.069,4.176,8.133,8.133,0,0,0,.249,1.54,9.706,9.706,0,0,0,1.131,2.473,7.944,7.944,0,0,0,1.87,2.273,21.772,21.772,0,0,0,1.969,1.432,9.2,9.2,0,0,0,4.393,1.36,11.6,11.6,0,0,0,2.49-.085,14.746,14.746,0,0,0,3.471-.9c.641-.272,1.288-.537,1.9-.867a13.522,13.522,0,0,0,2.182-1.367c.031-.068.045-.1.062-.139.343-.651.195-1.016-.507-1.32a1.483,1.483,0,0,1-.527-.352,5.555,5.555,0,0,1-1.087-1.419.763.763,0,0,0-.845-.514,9.418,9.418,0,0,1-1.053.679c-.489.229-1.007.4-1.517.58a10,10,0,0,1-3.084.49,6.106,6.106,0,0,1-3.387-.842,4.143,4.143,0,0,1-1.526-1.4,2.683,2.683,0,0,1-.16-.416,1.719,1.719,0,0,1,.324-.128c.516-.073,1.034-.142,1.552-.2m-2.75-4.25a2.335,2.335,0,0,1,.02-.533,4.918,4.918,0,0,1,2.348-3.175,3.843,3.843,0,0,1,1.6-.456,10.666,10.666,0,0,1,2.938.22,3.145,3.145,0,0,1,.807.312,5.458,5.458,0,0,1,2.384,2.607,1.012,1.012,0,0,1,.022.375c-.46.13-8.9.674-10.124.651" transform="translate(518.075 146.525)" fill="#faefed"/>
    <path id="Path_27" data-name="Path 27" d="M105.837,149.154c.838-.147.845-.151,1.056-.5a23.468,23.468,0,0,1,.354-5.457l-.363-.519c-.518-.02-1.018-.06-1.517-.05a4.217,4.217,0,0,0-.855.143,6.666,6.666,0,0,0-1.113.3c-.514.218-1,.5-1.5.758a7.261,7.261,0,0,0-2.053,1.493,2.042,2.042,0,0,1-.33.223c-.017-.415-.03-.753-.043-1.05l-.394-.525a3,3,0,0,0-1.436.308,2.375,2.375,0,0,1-.444.135c-.842.218-1.685.43-2.526.65-.408.107-.813.225-1.191.33-.237.814-.224.545-.143,1.238.1.865.216,1.729.293,2.6.173,1.949.5,3.876.818,5.8.149.9.318,1.79.447,2.689q.2,1.436.347,2.88a29.073,29.073,0,0,1,.305,4.05.817.817,0,0,0,.24.694,1.086,1.086,0,0,0,.944.048,8.52,8.52,0,0,1,1.01-.258,12.74,12.74,0,0,1,2.415-.284,10.677,10.677,0,0,0,1.27-.128.879.879,0,0,0,.722-.384c-.044-.165-.1-.349-.142-.534a6.921,6.921,0,0,1-.158-.678c-.14-.976-.25-1.956-.406-2.928-.29-1.795-.615-3.584-.906-5.379a5.367,5.367,0,0,1,.152-2.639,9.222,9.222,0,0,1,.681-1.6,3.054,3.054,0,0,1,2.6-1.6,4.382,4.382,0,0,1,1.861.166" transform="translate(541.52 115.879)" fill="#faefed"/>
    <path id="Path_28" data-name="Path 28" d="M72.31,224.536c.5.243,1,.5,1.518.72.354.155.731.259,1.089.4a4.915,4.915,0,0,0,1.813.366,16.046,16.046,0,0,0,3.978-.4,4.925,4.925,0,0,0,2.765-1.59,4.61,4.61,0,0,1,.465-.437,9.2,9.2,0,0,0,2.306-3.311,12.977,12.977,0,0,0,.672-7.638,11.149,11.149,0,0,0-4.694-6.7,9.112,9.112,0,0,0-5.033-1.558,12.064,12.064,0,0,0-3.1.4,4.492,4.492,0,0,0-2.075,1.114,14.894,14.894,0,0,1-1.165.958,1.287,1.287,0,0,1-.349.118c-.074-.7-.264-1.322-.288-1.989-.035-.946-.189-1.887-.255-2.832-.1-1.467-.172-2.938-.266-4.406-.02-.306-.087-.609-.128-.883L69,196.521a1.893,1.893,0,0,0-1.237.3,13.436,13.436,0,0,1-1.862.8c-.718.233-1.422.5-2.04.722-.205.243-.341.406-.48.567a.657.657,0,0,0-.125.75,2.264,2.264,0,0,1,.161.61c.108.863.2,1.729.3,2.593.154,1.306.316,2.611.466,3.918s.293,2.615.433,3.923c.046.422.049.849.115,1.268.165,1.051.367,2.1.53,3.148.089.573.134,1.153.194,1.73.088.847.181,1.693.253,2.54.064.751.056,1.511.164,2.255a12.385,12.385,0,0,1,.024,3.183,1.662,1.662,0,0,0,.583,1.713,50.534,50.534,0,0,0,5.474-.624,1.565,1.565,0,0,0,.022-.792c-.024-.251-.278-.479-.079-.8.15.078.28.15.413.214m-.714-7.468a7.559,7.559,0,0,1-.12-3.507,2.951,2.951,0,0,1,.756-1.476c.323-.333.605-.707.93-1.037a5.458,5.458,0,0,1,3.116-1.667,6.038,6.038,0,0,1,1.56-.04,3.014,3.014,0,0,1,1.417.472,6.488,6.488,0,0,1,1.463,1.22,4.477,4.477,0,0,1,.965,2.5c.022.25.022.5.03.715a6.727,6.727,0,0,1-.535,3.442,4.075,4.075,0,0,1-2.9,2.372,5.363,5.363,0,0,1-2.749-.113,6.694,6.694,0,0,1-2.292-1.085,4.757,4.757,0,0,1-1.359-1.234,2.06,2.06,0,0,1-.283-.564" transform="translate(557.159 87.883)" fill="#faefed"/>
    <path id="Path_29" data-name="Path 29" d="M90.925,68.862a12.03,12.03,0,0,0-1.4.562c-.734.347-1.454.726-2.178,1.094-.328.167-.658.33-.979.51a1.511,1.511,0,0,0-.831,1.376c.012,1.2.056,2.4.138,3.6.08,1.177.243,2.348.333,3.525.089,1.158.115,2.321.2,3.479.088,1.177.258,2.348.316,3.526a47.826,47.826,0,0,0,.631,5.006c.172,1.109.3,2.225.439,3.339.1.785.177,1.574.276,2.359.1.822.22,1.642.321,2.392a.82.82,0,0,0,.768.618,2.39,2.39,0,0,0,.464.029c.732-.062,1.465-.118,2.193-.211.709-.091,1.413-.224,2.119-.341.419-.069.839-.139,1.257-.217.256-.048.49-.135.55-.46a5.188,5.188,0,0,1-.271-.8c-.148-.857-.264-1.72-.39-2.582-.03-.21-.044-.423-.077-.634-.2-1.3-.407-2.6-.62-3.9a8.631,8.631,0,0,1,.223-3.454,7.453,7.453,0,0,1,.624-1.432,3.973,3.973,0,0,1,2.3-2.173,1.978,1.978,0,0,1,1.078-.125,4.345,4.345,0,0,1,1.595.669,3.992,3.992,0,0,1,1.157,1.358,6.956,6.956,0,0,1,1.079,2.73c.1.981.246,1.957.333,2.939.162,1.831.3,3.665.439,5.5.043.555.077,1.111.114,1.638a1.7,1.7,0,0,0,1.019.181,13.563,13.563,0,0,1,2.84.087c.518.056,1.034.124,1.519.183a.98.98,0,0,0,.518-1.29,2.721,2.721,0,0,1-.167-.609c-.062-.694-.115-1.39-.143-2.085q-.105-2.641-.183-5.283a22.4,22.4,0,0,0-.984-6.406,15.129,15.129,0,0,0-1.072-2.631,9.2,9.2,0,0,0-2.379-2.515,2.134,2.134,0,0,0-.537-.336,18.671,18.671,0,0,0-1.952-.731,6.578,6.578,0,0,0-1.822-.291,14.2,14.2,0,0,0-4.37.836,4.483,4.483,0,0,0-.906.382,9.258,9.258,0,0,0-1.621,1c-.019.017-.073,0-.133-.007A1.931,1.931,0,0,1,92.7,79c-.088-1.08-.172-2.16-.258-3.241-.048-.6-.1-1.2-.146-1.794-.076-1.042.071-2.085-.028-3.127a7.391,7.391,0,0,1-.014-.928.976.976,0,0,0-1.326-1.043" transform="translate(545.547 154.246)" fill="#faefed"/>
    <path id="Path_30" data-name="Path 30" d="M142.56,162.175a9.386,9.386,0,0,0,.887-2.689,30.908,30.908,0,0,0,.285-3.882c-.116-.843-.208-1.69-.353-2.527a8.136,8.136,0,0,0-2.929-5.064,8.745,8.745,0,0,0-4.15-1.836,14.035,14.035,0,0,0-1.843-.19,11.52,11.52,0,0,0-2.081.048,10.562,10.562,0,0,0-3.66,1.251,9.751,9.751,0,0,0-2.726,2.142,10.757,10.757,0,0,0-2.452,6.454,22.183,22.183,0,0,0,.282,3.64,13.477,13.477,0,0,0,.473,1.911,6.207,6.207,0,0,0,.6,1.5c.254.454.448.942.675,1.412a2.5,2.5,0,0,0,.963,1.2,2.862,2.862,0,0,1,.379.356,2.3,2.3,0,0,0,.5.383c.6.272,1.2.534,1.817.763a12.453,12.453,0,0,0,4.421.821,11.769,11.769,0,0,0,2.8-.418,5.2,5.2,0,0,0,1.642-.558,13.009,13.009,0,0,0,2.564-1.966,10.566,10.566,0,0,0,1.9-2.755m-5.119-2.9a8.358,8.358,0,0,1-1.434,1.8,2.731,2.731,0,0,1-1.514.672,5.68,5.68,0,0,1-2.687-.219,2.663,2.663,0,0,1-1.262-.681A5.413,5.413,0,0,1,129.4,159.2a5.94,5.94,0,0,1,.641-5.948,4.139,4.139,0,0,1,2.9-1.744,6.37,6.37,0,0,1,2.31.026,3.573,3.573,0,0,1,2.265,1.684,5.439,5.439,0,0,1,.7,2.723,6.172,6.172,0,0,1-.772,3.338" transform="translate(525.807 114.146)" fill="#faefed"/>
    <path id="Path_31" data-name="Path 31" d="M220.529,206.682c-.254-.7-.03-1.4-.221-2.037-.7-.383-.963-.326-1.38.3,0,.121-.019.256-.013.391.036.871.077,1.741.116,2.611.032.716.054,1.432.1,2.147a.739.739,0,0,0,1.081.721,1.5,1.5,0,0,0,.228-.124c.306-.728-.01-1.517.127-2.252a3.307,3.307,0,0,1,1.986-.187c-.017.471-.03.914-.051,1.355a.991.991,0,0,0,.623,1.018.7.7,0,0,0,1.035-.558,2.34,2.34,0,0,0,0-.406c-.055-1.393-.11-2.786-.171-4.179-.014-.325-.051-.649-.075-.932a1.05,1.05,0,0,0-1.3-.18c-.277.642.01,1.352-.124,2.051a3.533,3.533,0,0,1-1.961.261" transform="translate(476.234 83.868)" fill="#faefed"/>
    <path id="Path_32" data-name="Path 32" d="M220.145,231.259c.021.405.021.813.065,1.216a.974.974,0,0,0,.866.946,4.312,4.312,0,0,0,1.035.043c.4-.025.805-.1,1.207-.163a1.824,1.824,0,0,0,1.584-1.27,1.852,1.852,0,0,0-.441-2.082.875.875,0,0,1-.105-.158c.053-.137.114-.278.162-.424A1.859,1.859,0,0,0,223,226.825a6.17,6.17,0,0,0-2.241.1.929.929,0,0,0-.733.809,2.967,2.967,0,0,0-.031.636c.045.964.1,1.928.15,2.892m3.319.2a.66.66,0,0,1-.588.494c-.342.037-.689.018-1,.023a1.774,1.774,0,0,1-.23-1.145,3.483,3.483,0,0,1,1.5-.1.578.578,0,0,1,.321.724m-1.91-3.1a1.766,1.766,0,0,1,1.475.016.581.581,0,0,1-.078.827,7.123,7.123,0,0,1-1.44.152c.017-.372.031-.692.044-1" transform="translate(475.674 72.155)" fill="#faefed"/>
    <path id="Path_33" data-name="Path 33" d="M327.611,204.334a.9.9,0,0,0-1.016-.6c-.523.033-1.048.046-1.58.067-.226-.366-.226-.366-.11-.973.113-.029.2-.059.3-.075.463-.078.932-.131,1.388-.236a.683.683,0,0,0,.513-1.025,1.608,1.608,0,0,0-.206-.269,11.449,11.449,0,0,0-2.032-.044,1.159,1.159,0,0,1,.045-1.07c.154-.017.307-.041.462-.049.391-.022.783-.03,1.174-.056a.784.784,0,0,0,.8-.643.852.852,0,0,0-.155-.834,1.623,1.623,0,0,0-1.35-.131,3.246,3.246,0,0,1-.978.145,4.362,4.362,0,0,0-1.185.14,1.421,1.421,0,0,0-.4,1.271c.034,1.487.124,2.973.147,4.46a.792.792,0,0,0,.955.88c.721-.062,1.448-.067,2.173-.086.638-.017.877-.209,1.049-.871" transform="translate(421.995 86.942)" fill="#faefed"/>
    <path id="Path_34" data-name="Path 34" d="M50.81,84.9c.014.341.028.685.041,1.03.05,1.22.115,2.439.144,3.659a1.326,1.326,0,0,0,1.4,1.248,5.619,5.619,0,0,0,.63-.1c.6-.142,1.19-.3,1.834-.459.037.321.073.6.1.889.119,1.038.233,2.077.358,3.115.127,1.057.263,2.112.4,3.167.088.691.143,1.39.285,2.069a22.581,22.581,0,0,0,.6,2.182,3.074,3.074,0,0,0,1.212,1.659c.642.431,1.3.842,1.975,1.217a3.148,3.148,0,0,0,.987.315,13.849,13.849,0,0,0,1.5.155c.539.033,1.082.058,1.621.038a11.367,11.367,0,0,0,1.148-.164c.667-.1,1.334-.187,2.043-.287a5.277,5.277,0,0,0,.107-.7c0-.269-.039-.54-.061-.81-.086-1.061-.174-2.122-.256-3.183a2.105,2.105,0,0,1,.014-.464,1.18,1.18,0,0,0-.708-1.326,10.034,10.034,0,0,1-1.324.124,11.661,11.661,0,0,1-1.727-.2,2.285,2.285,0,0,1-1.933-1.9,51.9,51.9,0,0,1-.82-5.863,3.8,3.8,0,0,1,.026-.61,1.971,1.971,0,0,1,.9-.162c1.045-.047,2.09-.084,3.136-.132.223-.011.446-.053.695-.084-.04-.98-.108-1.9-.106-2.825,0-.945.072-1.891.113-2.872a1.243,1.243,0,0,0-1.567-.684c-.593.086-1.19.15-1.786.219-.4.048-.808.094-1.212.13-.186.015-.374,0-.589,0a4.84,4.84,0,0,1-.136-.6c-.071-.829-.132-1.659-.189-2.49-.05-.715-.087-1.431-.14-2.145a3.838,3.838,0,0,0-.09-.473,1.741,1.741,0,0,0-1.46-.061c-.389.112-.762.276-1.148.4-.681.215-1.369.409-2.051.625-.311.1-.613.226-.9.335l-.272.548a20.446,20.446,0,0,1,.311,2.254c.023.745.228,1.478.2,2.212-.608.146-1.146.3-1.7.4a4.8,4.8,0,0,0-1.6.607" transform="translate(563.595 149.786)" fill="#faefed"/>
  </g>
</svg>
