<svg width="362" height="98" viewBox="0 0 362 98" fill="none" xmlns="http://www.w3.org/2000/svg">
<g filter="url(#filter0_di_44_1110)">
<rect x="16.2031" y="13.1958" width="65.6056" height="65.6056" rx="15.7568" fill="#FD7777" shape-rendering="crispEdges"/>
<rect x="16.2031" y="13.1958" width="65.6056" height="65.6056" rx="15.7568" fill="url(#paint0_radial_44_1110)" shape-rendering="crispEdges"/>
<rect x="16.2031" y="13.1958" width="65.6056" height="65.6056" rx="15.7568" fill="url(#paint1_radial_44_1110)" shape-rendering="crispEdges"/>
<rect x="15.6045" y="12.5972" width="66.8028" height="66.8028" rx="16.3554" stroke="url(#paint2_linear_44_1110)" stroke-width="1.19718" shape-rendering="crispEdges"/>
</g>
<rect x="28.7612" y="25.4092" width="40.3451" height="40.3451" rx="20.1725" fill="url(#paint3_radial_44_1110)" fill-opacity="0.466667"/>
<g filter="url(#filter1_d_44_1110)">
<path d="M61.6753 56.8394C62.8204 56.0018 64.4796 56.6705 64.6948 58.106L65.5259 63.6489L65.5415 63.7837C65.6505 65.121 64.3679 66.1571 63.0835 65.769L62.9556 65.7251L57.8384 63.7935C56.4699 63.277 56.1614 61.4792 57.2798 60.5366L61.5669 56.9253L61.6753 56.8394Z" fill="white" stroke="#FFA0A0" stroke-width="0.239437"/>
<mask id="path-5-outside-1_44_1110" maskUnits="userSpaceOnUse" x="27.7744" y="24.415" width="42" height="42" fill="black">
<rect fill="white" x="27.7744" y="24.415" width="42" height="42"/>
<path d="M48.9473 25.415C60.0881 25.4152 69.1191 34.447 69.1191 45.5879C69.119 56.7286 60.088 65.7596 48.9473 65.7598C37.8064 65.7598 28.7746 56.7287 28.7744 45.5879C28.7744 34.4469 37.8063 25.415 48.9473 25.415ZM56.8662 51.2471C56.3492 50.1387 55.0314 49.6589 53.9229 50.1758L46.2334 53.7617C45.1248 54.2787 44.6452 55.5965 45.1621 56.7051C45.6791 57.8137 46.9969 58.2933 48.1055 57.7764L55.7949 54.1904C56.9035 53.6735 57.3832 52.3557 56.8662 51.2471ZM42.4844 43.2529C41.2612 43.2529 40.2696 44.2446 40.2695 45.4678C40.2695 46.691 41.2612 47.6826 42.4844 47.6826H52.8994C54.1226 47.6826 55.1143 46.691 55.1143 45.4678C55.1142 44.2446 54.1226 43.2529 52.8994 43.2529H42.4844ZM48.0967 33.1748C46.9882 32.6579 45.6703 33.1377 45.1533 34.2461C44.6364 35.3547 45.116 36.6725 46.2246 37.1895L53.9141 40.7754C55.0227 41.2923 56.3405 40.8127 56.8574 39.7041C57.3744 38.5955 56.8947 37.2777 55.7861 36.7607L48.0967 33.1748Z"/>
</mask>
<path d="M48.9473 25.415C60.0881 25.4152 69.1191 34.447 69.1191 45.5879C69.119 56.7286 60.088 65.7596 48.9473 65.7598C37.8064 65.7598 28.7746 56.7287 28.7744 45.5879C28.7744 34.4469 37.8063 25.415 48.9473 25.415ZM56.8662 51.2471C56.3492 50.1387 55.0314 49.6589 53.9229 50.1758L46.2334 53.7617C45.1248 54.2787 44.6452 55.5965 45.1621 56.7051C45.6791 57.8137 46.9969 58.2933 48.1055 57.7764L55.7949 54.1904C56.9035 53.6735 57.3832 52.3557 56.8662 51.2471ZM42.4844 43.2529C41.2612 43.2529 40.2696 44.2446 40.2695 45.4678C40.2695 46.691 41.2612 47.6826 42.4844 47.6826H52.8994C54.1226 47.6826 55.1143 46.691 55.1143 45.4678C55.1142 44.2446 54.1226 43.2529 52.8994 43.2529H42.4844ZM48.0967 33.1748C46.9882 32.6579 45.6703 33.1377 45.1533 34.2461C44.6364 35.3547 45.116 36.6725 46.2246 37.1895L53.9141 40.7754C55.0227 41.2923 56.3405 40.8127 56.8574 39.7041C57.3744 38.5955 56.8947 37.2777 55.7861 36.7607L48.0967 33.1748Z" fill="white"/>
<path d="M48.9473 25.415L48.9473 25.1756H48.9473V25.415ZM69.1191 45.5879L69.3586 45.5879V45.5879H69.1191ZM48.9473 65.7598L48.9473 65.9992L48.9473 65.9992L48.9473 65.7598ZM28.7744 45.5879L28.535 45.5879L28.535 45.5879L28.7744 45.5879ZM56.8662 51.2471L57.0832 51.1459L57.0832 51.1459L56.8662 51.2471ZM53.9229 50.1758L53.8217 49.9588L53.8217 49.9588L53.9229 50.1758ZM46.2334 53.7617L46.3346 53.9787L46.3346 53.9787L46.2334 53.7617ZM45.1621 56.7051L44.9451 56.8063L44.9451 56.8063L45.1621 56.7051ZM48.1055 57.7764L48.2067 57.9934L48.2067 57.9934L48.1055 57.7764ZM55.7949 54.1904L55.6937 53.9734L55.6937 53.9734L55.7949 54.1904ZM40.2695 45.4678L40.0301 45.4678V45.4678H40.2695ZM55.1143 45.4678L55.3537 45.4678L55.3537 45.4678L55.1143 45.4678ZM48.0967 33.1748L48.1979 32.9578L48.1979 32.9578L48.0967 33.1748ZM45.1533 34.2461L44.9363 34.1449L44.9363 34.1449L45.1533 34.2461ZM46.2246 37.1895L46.3258 36.9725L46.3258 36.9724L46.2246 37.1895ZM53.9141 40.7754L53.8129 40.9924L53.8129 40.9924L53.9141 40.7754ZM56.8574 39.7041L57.0744 39.8053L57.0744 39.8053L56.8574 39.7041ZM55.7861 36.7607L55.6849 36.9777L55.6849 36.9777L55.7861 36.7607ZM48.9473 25.415L48.9473 25.6545C59.9559 25.6546 68.8797 34.5792 68.8797 45.5879H69.1191H69.3586C69.3586 34.3148 60.2204 25.1758 48.9473 25.1756L48.9473 25.415ZM69.1191 45.5879L68.8797 45.5879C68.8795 56.5964 59.9558 65.5202 48.9473 65.5203L48.9473 65.7598L48.9473 65.9992C60.2202 65.999 69.3584 56.8609 69.3586 45.5879L69.1191 45.5879ZM48.9473 65.7598V65.5203C37.9386 65.5203 29.014 56.5965 29.0139 45.5879L28.7744 45.5879L28.535 45.5879C28.5352 56.861 37.6742 65.9992 48.9473 65.9992V65.7598ZM28.7744 45.5879H29.0139C29.0139 34.5791 37.9385 25.6545 48.9473 25.6545V25.415V25.1756C37.674 25.1756 28.535 34.3147 28.535 45.5879H28.7744ZM56.8662 51.2471L57.0832 51.1459C56.5103 49.9177 55.05 49.386 53.8217 49.9588L53.9229 50.1758L54.024 50.3928C55.0127 49.9318 56.1881 50.3597 56.6492 51.3483L56.8662 51.2471ZM53.9229 50.1758L53.8217 49.9588L46.1322 53.5447L46.2334 53.7617L46.3346 53.9787L54.024 50.3928L53.9229 50.1758ZM46.2334 53.7617L46.1322 53.5447C44.9038 54.1175 44.3723 55.5778 44.9451 56.8063L45.1621 56.7051L45.3791 56.6039C44.9181 55.6151 45.3459 54.4398 46.3346 53.9787L46.2334 53.7617ZM45.1621 56.7051L44.9451 56.8063C45.5179 58.0347 46.9782 58.5662 48.2067 57.9934L48.1055 57.7764L48.0043 57.5594C47.0155 58.0204 45.8402 57.5926 45.3791 56.6039L45.1621 56.7051ZM48.1055 57.7764L48.2067 57.9934L55.8961 54.4074L55.7949 54.1904L55.6937 53.9734L48.0043 57.5594L48.1055 57.7764ZM55.7949 54.1904L55.8961 54.4074C57.1246 53.8346 57.656 52.3743 57.0832 51.1459L56.8662 51.2471L56.6492 51.3483C57.1103 52.337 56.6825 53.5124 55.6937 53.9734L55.7949 54.1904ZM42.4844 43.2529V43.0135C41.129 43.0135 40.0301 44.1124 40.0301 45.4678L40.2695 45.4678L40.509 45.4678C40.509 44.3768 41.3934 43.4924 42.4844 43.4924V43.2529ZM40.2695 45.4678H40.0301C40.0301 46.8232 41.1289 47.9221 42.4844 47.9221V47.6826V47.4432C41.3934 47.4432 40.509 46.5587 40.509 45.4678H40.2695ZM42.4844 47.6826V47.9221H52.8994V47.6826V47.4432H42.4844V47.6826ZM52.8994 47.6826V47.9221C54.2548 47.9221 55.3537 46.8232 55.3537 45.4678H55.1143H54.8748C54.8748 46.5587 53.9904 47.4432 52.8994 47.4432V47.6826ZM55.1143 45.4678L55.3537 45.4678C55.3537 44.1124 54.2548 43.0135 52.8994 43.0135V43.2529V43.4924C53.9903 43.4924 54.8748 44.3768 54.8748 45.4678L55.1143 45.4678ZM52.8994 43.2529V43.0135H42.4844V43.2529V43.4924H52.8994V43.2529ZM48.0967 33.1748L48.1979 32.9578C46.9695 32.385 45.5092 32.9167 44.9363 34.1449L45.1533 34.2461L45.3703 34.3473C45.8315 33.3587 47.0069 32.9308 47.9955 33.3918L48.0967 33.1748ZM45.1533 34.2461L44.9363 34.1449C44.3635 35.3733 44.895 36.8336 46.1234 37.4065L46.2246 37.1895L46.3258 36.9724C45.3371 36.5114 44.9093 35.336 45.3703 34.3473L45.1533 34.2461ZM46.2246 37.1895L46.1234 37.4065L53.8129 40.9924L53.9141 40.7754L54.0153 40.5584L46.3258 36.9725L46.2246 37.1895ZM53.9141 40.7754L53.8129 40.9924C55.0413 41.5652 56.5016 41.0337 57.0744 39.8053L56.8574 39.7041L56.6404 39.6029C56.1794 40.5917 55.004 41.0194 54.0153 40.5584L53.9141 40.7754ZM56.8574 39.7041L57.0744 39.8053C57.6472 38.5769 57.1158 37.1166 55.8873 36.5437L55.7861 36.7607L55.6849 36.9777C56.6737 37.4388 57.1015 38.6142 56.6404 39.6029L56.8574 39.7041ZM55.7861 36.7607L55.8873 36.5437L48.1979 32.9578L48.0967 33.1748L47.9955 33.3918L55.6849 36.9777L55.7861 36.7607Z" fill="#FFA0A0" mask="url(#path-5-outside-1_44_1110)"/>
<rect x="60.4443" y="57.3594" width="3.97344" height="5.33721" transform="rotate(-8.45065 60.4443 57.3594)" fill="white"/>
<rect x="56.084" y="63.0105" width="3.83368" height="5.27914" transform="rotate(-69.4398 56.084 63.0105)" fill="white"/>
</g>
<g filter="url(#filter2_d_44_1110)">
<rect x="44.2188" y="54.6909" width="12.9145" height="4.42958" rx="2.21479" transform="rotate(-25 44.2188 54.6909)" fill="white" fill-opacity="0.01" shape-rendering="crispEdges"/>
<rect x="44.4574" y="54.7778" width="12.5554" height="4.07042" rx="2.03521" transform="rotate(-25 44.4574 54.7778)" stroke="white" stroke-opacity="0.5" stroke-width="0.359155" shape-rendering="crispEdges"/>
</g>
<g filter="url(#filter3_d_44_1110)">
<rect x="40.2622" y="43.2461" width="14.8451" height="4.42958" rx="2.21479" fill="white" fill-opacity="0.01" shape-rendering="crispEdges"/>
<rect x="40.4418" y="43.4257" width="14.4859" height="4.07042" rx="2.03521" stroke="white" stroke-opacity="0.5" stroke-width="0.359155" shape-rendering="crispEdges"/>
</g>
<g filter="url(#filter4_d_44_1110)">
<rect x="46.082" y="32.2339" width="12.9145" height="4.42958" rx="2.21479" transform="rotate(25 46.082 32.2339)" fill="white" fill-opacity="0.01" shape-rendering="crispEdges"/>
<rect x="46.1689" y="32.4725" width="12.5554" height="4.07042" rx="2.03521" transform="rotate(25 46.1689 32.4725)" stroke="white" stroke-opacity="0.5" stroke-width="0.359155" shape-rendering="crispEdges"/>
</g>
<path d="M116.959 64.8158C113.769 64.8158 110.947 64.3251 108.493 63.3435C106.039 62.3269 104.094 60.9072 102.656 59.0843C101.254 57.2264 100.483 55.088 100.343 52.6692H106.81C107.091 54.7024 108.125 56.2974 109.913 57.4542C111.701 58.6111 114.049 59.1895 116.959 59.1895C119.343 59.1895 121.148 58.7688 122.375 57.9275C123.637 57.0511 124.268 55.8242 124.268 54.2467C124.268 52.9146 123.795 51.8804 122.848 51.1443C121.902 50.4081 120.429 49.7245 118.431 49.0935L112.437 47.3057C110.263 46.6397 108.44 45.9736 106.968 45.3076C105.531 44.6415 104.234 43.6249 103.077 42.2577C101.955 40.8906 101.394 39.1028 101.394 36.8943C101.394 34.8611 101.92 33.0557 102.972 31.4782C104.058 29.9008 105.583 28.6738 107.546 27.7974C109.545 26.886 111.876 26.4303 114.54 26.4303C118.992 26.4303 122.55 27.552 125.214 29.7956C127.879 32.0391 129.333 35.1065 129.579 38.9976H123.164C123.023 36.8592 122.182 35.1766 120.64 33.9496C119.132 32.6876 117.029 32.0567 114.33 32.0567C112.296 32.0567 110.666 32.4598 109.439 33.2661C108.248 34.0723 107.652 35.1766 107.652 36.5788C107.652 37.5603 107.932 38.3666 108.493 38.9976C109.089 39.5935 109.772 40.0493 110.544 40.3648C111.35 40.6803 112.647 41.136 114.435 41.7319L120.009 43.4672C122.252 44.1683 124.093 44.8869 125.53 45.6231C127.002 46.3242 128.229 47.3408 129.211 48.6729C130.192 50.005 130.683 51.7577 130.683 53.9312C130.683 56.1397 130.122 58.0677 129 59.7153C127.879 61.3629 126.284 62.6249 124.215 63.5013C122.147 64.3777 119.728 64.8158 116.959 64.8158ZM141.951 64.0271H135.747V24.5899H141.951V64.0271ZM161.259 64.8158C158.455 64.8158 155.966 64.2024 153.792 62.9754C151.619 61.7134 149.919 59.9782 148.692 57.7697C147.5 55.5262 146.904 53.0022 146.904 50.1978C146.904 47.2181 147.5 44.6065 148.692 42.3629C149.919 40.0843 151.584 38.3491 153.687 37.1572C155.791 35.9303 158.139 35.3168 160.733 35.3168C163.362 35.3168 165.659 35.9127 167.622 37.1046C169.62 38.2614 171.18 39.9441 172.302 42.1526C173.423 44.326 174.002 46.9026 174.037 49.8823V51.3546H153.109C153.319 53.8435 154.143 55.8417 155.58 57.3491C157.053 58.8214 158.963 59.5575 161.312 59.5575C162.924 59.5575 164.309 59.1895 165.466 58.4533C166.623 57.6821 167.429 56.5954 167.885 55.1932H173.932C173.231 58.2079 171.758 60.5742 169.515 62.2919C167.271 63.9745 164.519 64.8158 161.259 64.8158ZM167.622 46.9902C167.236 44.957 166.43 43.3795 165.203 42.2577C164.011 41.136 162.521 40.5751 160.733 40.5751C158.91 40.5751 157.35 41.1535 156.053 42.3103C154.756 43.4321 153.862 44.9921 153.372 46.9902H167.622ZM188.081 64.6055C184.855 64.6055 182.279 63.8869 180.351 62.4496C178.458 60.9773 177.511 58.9616 177.511 56.4026C177.511 53.4579 178.598 51.3897 180.772 50.1978C182.98 49.0059 185.872 48.1996 189.448 47.779C189.763 47.7439 190.71 47.6387 192.287 47.4635C193.9 47.2882 195.057 47.0077 195.758 46.6221C196.459 46.2015 196.809 45.6406 196.809 44.9395C196.774 43.5723 196.248 42.4856 195.232 41.6793C194.215 40.838 192.831 40.4173 191.078 40.4173C189.255 40.4173 187.73 40.8731 186.503 41.7845C185.276 42.6609 184.575 43.8352 184.4 45.3076H178.142C178.318 43.3795 178.984 41.6618 180.141 40.1544C181.297 38.612 182.822 37.4201 184.715 36.5788C186.643 35.7375 188.799 35.3168 191.183 35.3168C194.864 35.3168 197.721 36.2282 199.754 38.0511C201.822 39.874 202.856 42.3103 202.856 45.3601V57.9801C202.856 58.7863 203.312 59.1895 204.224 59.1895H205.748V64.0271H202.804C201.402 64.0271 200.262 63.7467 199.386 63.1858C198.545 62.6249 198.001 61.8186 197.756 60.767C197.651 60.4515 197.563 60.136 197.493 59.8205C195.775 63.0105 192.638 64.6055 188.081 64.6055ZM189.343 59.7153C191.516 59.7153 193.304 59.1544 194.706 58.0326C196.108 56.9109 196.809 55.421 196.809 53.5631V49.6719C196.354 50.4081 195.6 50.9339 194.548 51.2494C193.497 51.5299 192.024 51.7928 190.131 52.0382C187.958 52.2836 186.345 52.6516 185.294 53.1424C184.277 53.6332 183.769 54.5446 183.769 55.8767C183.769 57.1037 184.242 58.0502 185.189 58.7162C186.17 59.3823 187.555 59.7153 189.343 59.7153ZM216.153 64.0271H209.948V24.5899H216.153V48.2522L228.037 36.1581H235.609L225.513 46.2015L236.976 64.0271H229.772L221.201 50.5133L216.153 55.5612V64.0271ZM244.16 64.7107C243.039 64.7107 242.092 64.3251 241.321 63.5539C240.55 62.7826 240.164 61.8186 240.164 60.6618C240.164 59.54 240.55 58.5935 241.321 57.8223C242.092 57.0511 243.039 56.6655 244.16 56.6655C245.317 56.6655 246.281 57.0511 247.052 57.8223C247.824 58.5935 248.209 59.54 248.209 60.6618C248.209 61.8186 247.824 62.7826 247.052 63.5539C246.281 64.3251 245.317 64.7107 244.16 64.7107ZM266.272 64.8158C263.328 64.8158 260.769 64.1673 258.595 62.8703C256.422 61.5732 254.757 59.8029 253.6 57.5594C252.443 55.2808 251.865 52.7218 251.865 49.8823C251.865 46.9026 252.478 44.326 253.705 42.1526C254.932 39.9441 256.632 38.2614 258.805 37.1046C260.979 35.9127 263.415 35.3168 266.115 35.3168C268.639 35.3168 270.865 35.8076 272.793 36.7891C274.756 37.7356 276.298 39.0852 277.42 40.838C278.577 42.5908 279.243 44.624 279.418 46.9376H273.318C273.038 45.0096 272.249 43.4847 270.952 42.3629C269.655 41.2061 268.025 40.6277 266.062 40.6277C263.678 40.6277 261.768 41.469 260.33 43.1517C258.893 44.7993 258.174 47.0428 258.174 49.8823C258.174 52.862 258.928 55.2107 260.436 56.9284C261.943 58.6461 263.889 59.505 266.272 59.505C268.165 59.505 269.725 58.9441 270.952 57.8223C272.214 56.6655 273.003 55.088 273.318 53.0898H279.418C279.032 56.7005 277.665 59.5575 275.317 61.6609C272.968 63.7642 269.953 64.8158 266.272 64.8158ZM284.355 64.0271V24.5899H290.56V39.1554C291.541 37.9635 292.786 37.0345 294.293 36.3685C295.836 35.6674 297.501 35.3168 299.289 35.3168C302.268 35.3168 304.652 36.2458 306.44 38.1037C308.228 39.9616 309.122 42.4506 309.122 45.5705V64.0271H302.917V45.886C302.917 44.3085 302.426 43.064 301.445 42.1526C300.498 41.2061 299.201 40.7328 297.553 40.7328C295.485 40.7328 293.802 41.3463 292.505 42.5732C291.243 43.7651 290.595 45.29 290.56 47.148V64.0271H284.355ZM324.262 64.6055C321.037 64.6055 318.461 63.8869 316.533 62.4496C314.64 60.9773 313.693 58.9616 313.693 56.4026C313.693 53.4579 314.78 51.3897 316.953 50.1978C319.162 49.0059 322.054 48.1996 325.629 47.779C325.945 47.7439 326.891 47.6387 328.469 47.4635C330.081 47.2882 331.238 47.0077 331.939 46.6221C332.64 46.2015 332.991 45.6406 332.991 44.9395C332.956 43.5723 332.43 42.4856 331.414 41.6793C330.397 40.838 329.012 40.4173 327.259 40.4173C325.437 40.4173 323.912 40.8731 322.685 41.7845C321.458 42.6609 320.757 43.8352 320.581 45.3076H314.324C314.499 43.3795 315.165 41.6618 316.322 40.1544C317.479 38.612 319.004 37.4201 320.897 36.5788C322.825 35.7375 324.981 35.3168 327.365 35.3168C331.045 35.3168 333.902 36.2282 335.936 38.0511C338.004 39.874 339.038 42.3103 339.038 45.3601V57.9801C339.038 58.7863 339.494 59.1895 340.405 59.1895H341.93V64.0271H338.985C337.583 64.0271 336.444 63.7467 335.568 63.1858C334.726 62.6249 334.183 61.8186 333.938 60.767C333.832 60.4515 333.745 60.136 333.675 59.8205C331.957 63.0105 328.819 64.6055 324.262 64.6055ZM325.524 59.7153C327.698 59.7153 329.485 59.1544 330.888 58.0326C332.29 56.9109 332.991 55.421 332.991 53.5631V49.6719C332.535 50.4081 331.782 50.9339 330.73 51.2494C329.678 51.5299 328.206 51.7928 326.313 52.0382C324.14 52.2836 322.527 52.6516 321.475 53.1424C320.459 53.6332 319.95 54.5446 319.95 55.8767C319.95 57.1037 320.424 58.0502 321.37 58.7162C322.352 59.3823 323.736 59.7153 325.524 59.7153ZM357.664 64.0271C354.649 64.0271 352.336 63.3085 350.723 61.8712C349.145 60.3989 348.357 58.278 348.357 55.5087V41.4164H343.467V36.1581H348.357V26.6406H354.562V36.1581H361.765V41.4164H354.562V55.088C354.562 56.2799 354.86 57.1913 355.455 57.8223C356.051 58.4533 356.928 58.7688 358.085 58.7688H361.24V64.0271H357.664Z" fill="#787878"/>
<defs>
<filter id="filter0_di_44_1110" x="0.824699" y="0.682256" width="96.3623" height="96.3623" filterUnits="userSpaceOnUse" color-interpolation-filters="sRGB">
<feFlood flood-opacity="0" result="BackgroundImageFix"/>
<feColorMatrix in="SourceAlpha" type="matrix" values="0 0 0 0 0 0 0 0 0 0 0 0 0 0 0 0 0 0 127 0" result="hardAlpha"/>
<feMorphology radius="4.29732" operator="erode" in="SourceAlpha" result="effect1_dropShadow_44_1110"/>
<feOffset dy="2.86488"/>
<feGaussianBlur stdDeviation="9.23924"/>
<feComposite in2="hardAlpha" operator="out"/>
<feColorMatrix type="matrix" values="0 0 0 0 0 0 0 0 0 0 0 0 0 0 0 0 0 0 0.2 0"/>
<feBlend mode="normal" in2="BackgroundImageFix" result="effect1_dropShadow_44_1110"/>
<feBlend mode="normal" in="SourceGraphic" in2="effect1_dropShadow_44_1110" result="shape"/>
<feColorMatrix in="SourceAlpha" type="matrix" values="0 0 0 0 0 0 0 0 0 0 0 0 0 0 0 0 0 0 127 0" result="hardAlpha"/>
<feOffset/>
<feGaussianBlur stdDeviation="1.19718"/>
<feComposite in2="hardAlpha" operator="arithmetic" k2="-1" k3="1"/>
<feColorMatrix type="matrix" values="0 0 0 0 1 0 0 0 0 1 0 0 0 0 1 0 0 0 0.5 0"/>
<feBlend mode="normal" in2="shape" result="effect2_innerShadow_44_1110"/>
</filter>
<filter id="filter1_d_44_1110" x="25.7816" y="25.1755" width="43.9359" height="44.7744" filterUnits="userSpaceOnUse" color-interpolation-filters="sRGB">
<feFlood flood-opacity="0" result="BackgroundImageFix"/>
<feColorMatrix in="SourceAlpha" type="matrix" values="0 0 0 0 0 0 0 0 0 0 0 0 0 0 0 0 0 0 127 0" result="hardAlpha"/>
<feOffset dx="-1.19718" dy="2.39437"/>
<feGaussianBlur stdDeviation="0.778169"/>
<feComposite in2="hardAlpha" operator="out"/>
<feColorMatrix type="matrix" values="0 0 0 0 0 0 0 0 0 0 0 0 0 0 0 0 0 0 0.05 0"/>
<feBlend mode="normal" in2="BackgroundImageFix" result="effect1_dropShadow_44_1110"/>
<feBlend mode="normal" in="SourceGraphic" in2="effect1_dropShadow_44_1110" result="shape"/>
</filter>
<filter id="filter2_d_44_1110" x="41.8341" y="48.5243" width="16.9093" height="12.8053" filterUnits="userSpaceOnUse" color-interpolation-filters="sRGB">
<feFlood flood-opacity="0" result="BackgroundImageFix"/>
<feColorMatrix in="SourceAlpha" type="matrix" values="0 0 0 0 0 0 0 0 0 0 0 0 0 0 0 0 0 0 127 0" result="hardAlpha"/>
<feOffset dx="-0.71831" dy="0.957746"/>
<feGaussianBlur stdDeviation="1.19718"/>
<feComposite in2="hardAlpha" operator="out"/>
<feColorMatrix type="matrix" values="0 0 0 0 0 0 0 0 0 0 0 0 0 0 0 0 0 0 0.15 0"/>
<feBlend mode="normal" in2="BackgroundImageFix" result="effect1_dropShadow_44_1110"/>
<feBlend mode="normal" in="SourceGraphic" in2="effect1_dropShadow_44_1110" result="shape"/>
</filter>
<filter id="filter3_d_44_1110" x="37.1495" y="41.8095" width="19.6339" height="9.21842" filterUnits="userSpaceOnUse" color-interpolation-filters="sRGB">
<feFlood flood-opacity="0" result="BackgroundImageFix"/>
<feColorMatrix in="SourceAlpha" type="matrix" values="0 0 0 0 0 0 0 0 0 0 0 0 0 0 0 0 0 0 127 0" result="hardAlpha"/>
<feOffset dx="-0.71831" dy="0.957746"/>
<feGaussianBlur stdDeviation="1.19718"/>
<feComposite in2="hardAlpha" operator="out"/>
<feColorMatrix type="matrix" values="0 0 0 0 0 0 0 0 0 0 0 0 0 0 0 0 0 0 0.15 0"/>
<feBlend mode="normal" in2="BackgroundImageFix" result="effect1_dropShadow_44_1110"/>
<feBlend mode="normal" in="SourceGraphic" in2="effect1_dropShadow_44_1110" result="shape"/>
</filter>
<filter id="filter4_d_44_1110" x="41.8253" y="31.5253" width="16.9093" height="12.8051" filterUnits="userSpaceOnUse" color-interpolation-filters="sRGB">
<feFlood flood-opacity="0" result="BackgroundImageFix"/>
<feColorMatrix in="SourceAlpha" type="matrix" values="0 0 0 0 0 0 0 0 0 0 0 0 0 0 0 0 0 0 127 0" result="hardAlpha"/>
<feOffset dx="-0.71831" dy="0.957746"/>
<feGaussianBlur stdDeviation="1.19718"/>
<feComposite in2="hardAlpha" operator="out"/>
<feColorMatrix type="matrix" values="0 0 0 0 0 0 0 0 0 0 0 0 0 0 0 0 0 0 0.15 0"/>
<feBlend mode="normal" in2="BackgroundImageFix" result="effect1_dropShadow_44_1110"/>
<feBlend mode="normal" in="SourceGraphic" in2="effect1_dropShadow_44_1110" result="shape"/>
</filter>
<radialGradient id="paint0_radial_44_1110" cx="0" cy="0" r="1" gradientUnits="userSpaceOnUse" gradientTransform="translate(81.8088 78.8014) rotate(-135) scale(46.3902)">
<stop stop-color="white" stop-opacity="0.3"/>
<stop offset="1" stop-color="white" stop-opacity="0"/>
</radialGradient>
<radialGradient id="paint1_radial_44_1110" cx="0" cy="0" r="1" gradientUnits="userSpaceOnUse" gradientTransform="translate(16.2031 13.1958) rotate(45) scale(46.3902)">
<stop stop-color="white" stop-opacity="0.3"/>
<stop offset="1" stop-color="white" stop-opacity="0"/>
</radialGradient>
<linearGradient id="paint2_linear_44_1110" x1="81.8088" y1="13.1958" x2="16.2031" y2="78.8014" gradientUnits="userSpaceOnUse">
<stop stop-color="#FD7777" stop-opacity="0.5"/>
<stop offset="0.505" stop-color="#FD7777" stop-opacity="0.8"/>
<stop offset="1" stop-color="#FD7777" stop-opacity="0.5"/>
</linearGradient>
<radialGradient id="paint3_radial_44_1110" cx="0" cy="0" r="1" gradientUnits="userSpaceOnUse" gradientTransform="translate(82.9936 45.5219) rotate(-180) scale(52.0775)">
<stop stop-color="white"/>
<stop offset="1" stop-color="#FD7777"/>
</radialGradient>
</defs>
</svg>
