<svg xmlns="http://www.w3.org/2000/svg" width="815" height="279" viewBox="0 0 815 279"><g fill="none" fill-rule="evenodd"><path fill="#C45508" d="M774.8567 176.5206c-4.841 4.745-7.259 10.597-7.259 17.566 0 5.807 2.078 10.647 6.243 14.517 4.16 3.869 9.241 5.807 15.243 5.807 6.968 0 12.87-2.368 17.711-7.114 4.836-4.741 7.258-10.597 7.258-17.565 0-6.193-2.082-11.129-6.242-14.808-4.165-3.675-9.341-5.516-15.533-5.516-6.778 0-12.585 2.372-17.421 7.113"/><path fill="#233741" d="M101.99 214.471c-11.655 0-20.498-3.688-26.517-11.073l-12.822 55.074c-.392 1.941-.437 3.351-.145 4.226.29.874 1.406 1.699 3.351 2.477l27.392 12.822v.584H0v-.584l14.279-11.365c2.914-2.14 4.662-4.859 5.244-8.16l37.883-170.76c.388-1.939.583-3.352.583-4.225 0-.875-.195-1.649-.583-2.331-.392-.678-1.265-1.311-2.623-1.893L37.3 70.811v-.582l69.644-4.664-12.822 56.823h.583c13.988-37.881 30.984-56.823 50.995-56.823 9.907 0 18.018 3.498 24.332 10.492 6.311 6.993 9.47 17.679 9.47 32.053 0 28.557-8.013 53.426-24.04 74.598-16.027 21.177-33.852 31.763-53.472 31.763m2.623-104.903c-7.772 13.795-17.192 43.905-28.266 90.332 2.914 1.75 6.215 2.624 9.908 2.624 10.295 0 20.006-8.351 29.14-25.061 11.848-21.754 17.775-45.845 17.775-72.267 0-10.682-2.914-16.027-8.741-16.027-5.442 0-12.049 6.803-19.816 20.399M207.685 214.471c-7.968 0-14.133-2.522-18.503-7.576-4.372-5.05-6.557-11.46-6.557-19.232 0-5.05 1.065-12.24 3.206-21.564l32.345-142.787c.583-1.552.774-2.863.583-3.933-.197-1.066-.487-1.794-.875-2.186-.392-.386-1.165-.873-2.331-1.456l-17.484-7.869v-.582L267.422 0l-37.881 166.391c-1.557 6.41-2.331 11.755-2.331 16.027 0 5.44 2.134 8.158 6.41 8.158 3.885 0 7.476-2.136 10.782-6.41 5.436-6.993 9.617-15.249 12.53-24.77h.583c-3.111 18.262-10.491 32.738-22.146 43.42-9.134 7.771-18.358 11.655-27.684 11.655M564.3956 214.471c-15.933 0-28.705-5.05-38.32-15.153-9.615-10.098-14.426-23.698-14.426-40.795 0-24.67 8.208-46.334 24.625-64.982 16.414-18.65 37.154-27.976 62.215-27.976 13.986 0 27.391 2.236 40.212 6.702l-23.314 57.116h-.29l-15.152-54.492c-.39-1.748-.829-2.814-1.311-3.206-.487-.386-1.311-.583-2.476-.583-5.831 0-11.659 4.517-17.486 13.55-5.828 9.034-10.444 19.721-13.841 32.054-3.4 12.34-5.098 23.559-5.098 33.656 0 12.049 2.425 21.081 7.284 27.101 4.852 6.025 10.877 9.034 18.067 9.034 15.539 0 28.847-10.587 39.921-31.763h.582c-5.244 20.207-13.212 35.214-23.895 45.021-10.684 9.812-23.12 14.716-37.297 14.716M690.0907 214.471c-16.317 0-29.48-5.245-39.483-15.736-10.008-10.49-15.009-24.768-15.009-42.835 0-23.896 8.401-44.922 25.206-63.089 16.801-18.162 37.345-27.246 61.633-27.246 13.012 0 23.502 2.818 31.47 8.451 7.964 5.637 11.949 13.31 11.949 23.022 0 13.795-7.678 25.205-23.02 34.239-15.349 9.033-35.069 13.65-59.155 13.841-.196 1.557-.294 3.788-.294 6.702 0 23.895 9.619 35.843 28.851 35.843 9.128 0 17.674-3.01 25.642-9.034 7.965-6.018 14.374-14.861 19.233-26.517l.584.291c-4.472 21.176-12.924 36.817-25.354 46.915-12.434 10.103-26.517 15.153-42.253 15.153m31.763-143.369c-7.771 0-15.591 7.531-23.456 22.584-7.868 15.056-12.678 31.034-14.425 47.935 14.955-1.553 26.416-7.381 34.384-17.484 7.965-10.098 11.949-22.147 11.949-36.133 0-11.265-2.818-16.902-8.452-16.902M338.6967 65.5651c16.317 0 29.48 5.245 39.482 15.736 10.009 10.49 15.01 24.768 15.01 42.836 0 23.895-8.401 44.921-25.206 63.088-16.801 18.162-37.345 27.246-61.633 27.246-13.012 0-23.502-2.819-31.47-8.451-7.964-5.637-11.949-13.309-11.949-23.021 0-13.796 7.678-25.206 23.02-34.24 15.349-9.033 35.069-16.75 59.155-16.94.196-1.558.293-.689.293-3.603 0-23.895-9.618-35.842-28.85-35.842-9.128 0-17.674 3.009-25.642 9.033-7.965 6.018-14.374 14.862-19.233 26.517l-.584-.291c4.472-21.176 12.924-36.817 25.354-46.915 12.433-10.103 26.517-15.153 42.253-15.153m-31.763 143.369c7.771 0 15.591-7.53 23.456-22.584 7.868-15.056 12.678-34.133 14.425-51.035-14.955 1.553-26.417 10.481-34.384 20.585-7.965 10.097-11.949 22.146-11.949 36.132 0 11.265 2.818 16.902 8.452 16.902"/><path fill="#233741" d="M433.0327 214.471c-16.317 0-29.48-5.245-39.482-15.736-10.009-10.49-15.01-24.768-15.01-42.835 0-23.896 8.401-44.922 25.206-63.089 16.801-18.162 37.345-27.246 61.633-27.246 13.012 0 23.501 2.818 31.47 8.451 7.964 5.637 11.949 13.31 11.949 23.022 0 13.795-7.678 25.205-23.02 34.239-15.349 9.033-35.069 13.65-59.155 13.841-.196 1.557-.294 3.788-.294 6.702 0 23.895 9.619 35.843 28.851 35.843 9.128 0 17.674-3.01 25.642-9.034 7.965-6.018 14.374-14.861 19.232-26.517l.585.291c-4.472 21.176-12.924 36.817-25.354 46.915-12.433 10.103-26.517 15.153-42.253 15.153m31.763-143.369c-7.771 0-15.591 7.531-23.456 22.584-7.868 15.056-12.678 31.034-14.425 47.935 14.955-1.553 26.417-7.381 34.384-17.484 7.965-10.098 11.949-22.147 11.949-36.133 0-11.265-2.818-16.902-8.452-16.902"/></g></svg>
